<?xml version="1.0" encoding="utf-8"?>
<!-- Generator: Adobe Illustrator 27.5.0, SVG Export Plug-In . SVG Version: 6.00 Build 0)  -->
<svg version="1.1" id="Layer_1" xmlns="http://www.w3.org/2000/svg" xmlns:xlink="http://www.w3.org/1999/xlink" x="0px" y="0px"
	 viewBox="0 0 1920 1080" style="enable-background:new 0 0 1920 1080;" xml:space="preserve">
<g>
	<g>
		<path d="M42.9,488.4c-10.8,2.5-21.5,5.1-32.3,7.8c-3-7.2-6-14.4-9-21.7c20.6-8.5,41.3-16.7,62-24.7c5.8-2.2,14.6-5.8,26.6-10.8
			c15.7-6.9,30-12.5,43.1-17.1c28.9-10.1,52.9-14.5,71.6-13.7c18.8,0.8,33.4,6,43.9,15.3c10.5,9.3,18.3,22.9,23.5,40.5
			c9,30.5,5.4,57.2-10,80.4c-15.4,23.3-40.7,40.6-76.4,53.2c-14.1,5-24.4,8.3-30.8,9.9c8.6,23.3,17.2,46.6,25.7,69.9
			c17.1-4.9,34.1-9.7,51.2-14.2c2.4,7.2,4.9,14.3,7.3,21.5c-44.4,15.2-88.4,31.8-132,49.9c-2.9-7-5.8-14-8.7-20.9
			c9.2-5.2,18.4-10.3,27.7-15.3C98.6,628.4,70.7,558.4,42.9,488.4z M177.4,575.9c17.4-6.1,29.5-16.4,36.4-31.1
			c6.9-14.6,6.4-34.9-2-60.8c-6.5-20.1-16.2-33.2-29.3-39.1c-13.1-5.9-30-5.3-50.6,1.9c-7.7,2.7-15.5,6-23.3,10
			c-3.7,1.9-6.3,3.1-7.9,3.7c15.3,41.5,30.6,83,45.9,124.5C152.8,584.1,163.1,581,177.4,575.9z"/>
		<path d="M373.2,352.3c21.7-5.2,43.5-10.1,65.3-14.8c50.6,76.4,98,154.2,142.2,233.2c7.7,0,15.3,0,23,0c1.2,7.5,2.4,14.9,3.6,22.4
			c-37.6,6-75,13-112.3,21c-1.6-7.4-3.2-14.8-4.7-22.2c9.3-3.3,18.7-6.5,28-9.7c-8.2-15.1-16.5-30.1-25-45.1
			c-33.9,7-67.7,14.8-101.3,23.4c-1,17.3-1.9,34.6-2.6,51.8c10.6-1.6,21.1-3.1,31.7-4.6c1.8,7.3,3.6,14.7,5.4,22
			c-32.1,7.9-64,16.6-95.8,25.9c-2.3-7.2-4.5-14.4-6.8-21.6c7.2-3.4,14.4-6.8,21.7-10.2C351.3,533.7,360.5,443,373.2,352.3z
			 M416.8,407.7c-4.7-9-9.4-18-14.1-27c-0.4,10.3-0.8,20.6-1.2,30.9c-3.5,40.5-6.4,81-8.6,121.5c28.9-7.3,57.9-14,87-20.1
			C459.5,477.6,438.4,442.5,416.8,407.7z"/>
		<path d="M613.7,569.1c10-2.8,20-5.6,30-8.3c-10.6-74.6-21.2-149.2-31.8-223.8c-10.9-0.2-21.8-0.4-32.8-0.5
			c-1.2-7.6-2.4-15.2-3.5-22.8c20.8-3.2,41.6-6.2,62.5-8.9c5.5-0.7,11.5-1.6,18.1-2.7c6.6-1.1,11.6-1.9,15-2.6
			c14.9-2.7,27.2-4.5,37.1-5.5c29.7-3,53.9-2.3,72.1,1.7c18.3,4,31.7,11.3,40.3,21.6c8.6,10.4,13.3,24.4,14.2,42
			c0.9,17.4-3.5,33.7-12.8,49.1c-9.3,15.4-23.3,26.5-41.8,33.5c11.2,3.4,21.4,10.6,30.4,21.3c9.1,10.8,18.8,25,29,42.6
			c7.3,12,12.7,20.6,16.5,25.9c3.8,5.3,7.4,8.2,10.8,8.8c4.3,1.1,8.7,2.2,13,3.3c0.3,7.4,0.5,14.9,0.8,22.3
			c-21.9,0.8-43.7,1.9-65.5,3.3c-4.1,0.3-8.7-3.5-13.8-11.4c-5.1-7.8-11.9-20.3-20.7-37.3c-10.3-19.9-19.3-35.3-26.7-46.3
			c-7.5-11-15-17.5-22.6-19.5c-13.9,1.4-27.8,2.9-41.7,4.5c3.6,31.3,7.3,62.6,10.9,93.8c12.1-0.1,24.1-0.2,36.1-0.1
			c0.8,7.5,1.5,15,2.3,22.6c-40.7,4.1-81.4,9.3-121.9,15.6C616,584.1,614.8,576.6,613.7,569.1z M759.9,413.9
			c7.9-11,11.2-26.8,9.5-47.4c-1.4-18.3-7-31.6-16.7-39.6c-9.7-8-25.7-11.1-47.7-8.8c-8,0.8-14.8,1.9-20.3,3.1
			c-5.5,1.3-9.1,2-10.8,2.2c4.4,37.5,8.7,75.1,13.1,112.6c3.3,0.1,11.3-0.5,23.8-1.9c4.6-0.5,9.3-1,13.9-1.4
			C740.3,431.1,752,424.9,759.9,413.9z"/>
		<path d="M861.2,286.1c44-1.7,88-2.3,132-1.8c-0.1,7.8-0.2,15.6-0.3,23.4c-12.2,1.5-24.4,3.1-36.6,4.7
			c21.4,56.4,41.4,113.1,59.9,170c3.6,12.8,7.1,25.6,10.5,38.5c3.7-12.7,7.4-25.5,11.1-38.2c20.5-55.7,42.5-111,65.7-166.1
			c-11.2-2.3-22.4-4.5-33.7-6.6c0.3-7.8,0.7-15.6,1-23.4c35,1.5,70,3.8,105,6.8c-0.7,7.8-1.3,15.6-2,23.3
			c-9.3,0.8-18.6,1.7-27.8,2.7c-39.2,82.3-75.1,165.6-107.6,249.5c-15.3-0.5-30.6-0.9-45.8-1.1c-31.2-85.5-66-170.3-104.6-254.3
			c-8.6-1.4-17.3-2.7-26-4C861.8,301.7,861.5,293.9,861.2,286.1z"/>
		<path d="M1285.5,303.7c22,2.9,44,6,66,9.5c19.9,89.5,36.3,179.1,49.3,268.6c7.2,2.7,14.4,5.5,21.5,8.2c-1.5,7.4-3.1,14.8-4.6,22.2
			c-37.3-7.8-74.8-14.7-112.4-20.5c1.2-7.5,2.3-14.9,3.5-22.4c9.9,0.3,19.7,0.6,29.6,1c-2.3-17-4.7-34-7.2-51
			c-34.1-5.5-68.3-10.3-102.6-14.3c-7.1,15.8-14,31.6-20.9,47.5c10.4,2.3,20.7,4.6,31,7.1c-0.9,7.5-1.9,15-2.8,22.5
			c-32.6-4.1-65.3-7.4-98-10c0.5-7.5,0.9-15.1,1.4-22.6c7.9-0.6,15.8-1.2,23.7-1.8C1200.6,465.3,1241.4,383.9,1285.5,303.7z
			 M1306.3,370.9c-1.1-10.1-2.3-20.2-3.5-30.3c-4.1,9.5-8.1,19-12.1,28.5c-17.7,36.6-34.8,73.4-51.3,110.4
			c29.4,3.5,58.8,7.6,88.1,12.3C1321.1,451.5,1314,411.2,1306.3,370.9z"/>
		<path d="M1583.5,388.3c-20.2-4.6-40.4-8.9-60.6-12.9c-11.7,25.5-23.2,51-34.5,76.6c-11.4-2.6-22.9-5.1-34.3-7.5
			c9.8-35.1,19.7-70.3,29.7-105.4c91.8,19.6,182.8,44.3,272.6,74.3c-9.9,35.1-19.8,70.2-29.8,105.2c-10.5-3.5-21-7-31.6-10.4
			c3.2-27.8,6.2-55.7,9-83.6c-19.3-6.7-38.7-13.2-58.1-19.4c-21.1,73.5-42.1,147-63.2,220.5c17.3,6.3,34.6,12.8,51.8,19.5
			c-2.3,7.2-4.5,14.4-6.8,21.6c-51.8-16.2-104-30.5-156.5-42.9c1.7-7.4,3.5-14.7,5.2-22.1c16.6,2.6,33.2,5.4,49.7,8.4
			C1545.2,536.3,1564.4,462.3,1583.5,388.3z"/>
		<path d="M1815.2,464.1c-11-5.8-22.1-11.5-33.3-17.1c2.6-7.4,5.2-14.7,7.7-22.1c44.4,15.5,88.4,32.3,132,50.4c-3,7.2-6,14.4-9,21.6
			c-12.5-3.4-25-6.7-37.6-9.9c-27.7,70-55.5,140.1-83.2,210.1c10.3,5.6,20.6,11.2,30.8,17c-2.8,6.9-5.7,13.7-8.5,20.6
			c-38.8-16.1-77.9-31-117.3-44.8c2.5-7.1,5-14.3,7.5-21.4c11,2.5,22,5.1,32.9,7.8C1763.4,605.5,1789.3,534.8,1815.2,464.1z"/>
	</g>
</g>
<g>
	<g>
		<path d="M286.8,753.4c-2.1,0.5-4.1,1-6.2,1.5c-0.6-1.4-1.2-2.9-1.8-4.3c3.7-1.5,7.5-3.1,11.2-4.6c1.7-0.7,3.9-1.7,6.5-3
			c0.6-0.3,1.4-0.7,2.3-1.1c0.9-0.4,1.9-0.9,3.1-1.3c7.6-3,13.3-4.1,17.1-3.3c3.8,0.8,6.5,3.2,8,7.2c1.3,3.5,1.3,6.8,0,10
			c-1.3,3.2-3.7,5.7-7,7.6c4.9-2,9.2-2.4,12.8-1.3c3.6,1.1,6.2,3.6,7.6,7.4c1.9,4.9,1.6,9.5-0.9,13.8c-2.4,4.3-7.8,8.1-16.1,11.4
			c-2.2,0.9-4.2,1.6-6.1,2.2c-0.5,0.2-1.3,0.5-2.5,0.9c-1.2,0.4-2.4,0.8-3.6,1.3c-3.7,1.5-7.3,3-11,4.5c-0.6-1.4-1.2-2.8-1.7-4.2
			c1.8-1,3.6-2.1,5.5-3.1C298.2,781.3,292.5,767.3,286.8,753.4z M308.1,765.2c1.2-0.5,2.3-0.9,3.5-1.4c3-1.2,4.9-3,5.7-5.3
			c0.8-2.4,0.6-5.2-0.7-8.4c-1.2-3.1-2.9-5-5-5.8c-2.1-0.8-5-0.5-8.6,0.9c-1,0.4-2.9,1.3-5.8,2.7c2.5,6.2,5,12.4,7.5,18.7
			C305.2,766.2,306.4,765.8,308.1,765.2z M321.3,789.2c4.1-1.6,6.8-3.8,7.9-6.4c1.1-2.6,1-5.7-0.4-9.3c-1.3-3.4-3.1-5.6-5.4-6.4
			c-2.3-0.8-5.3-0.5-9,1c-4.2,1.6-6.7,2.7-7.7,3.2c2.6,6.6,5.3,13.1,7.9,19.7C315.9,791.1,318.1,790.5,321.3,789.2z"/>
		<path d="M350.1,777.9c1.8-1,3.7-1.9,5.5-2.9c-5.2-14.1-10.5-28.2-15.7-42.4c-2,0.4-4,0.7-6,1.1c-0.5-1.4-1.1-2.9-1.6-4.3
			c3.7-1.4,7.3-2.7,11-4.1c1-0.4,2-0.8,3.2-1.2c1.1-0.5,2-0.8,2.6-1.1c2.6-1.1,4.7-2,6.4-2.7c5.2-1.9,9.6-2.9,13.1-3
			s6.3,0.6,8.4,2.2c2.1,1.6,3.8,4,4.9,7.3c1.1,3.3,1.2,6.7,0.4,10.1c-0.9,3.5-2.9,6.3-6,8.6c2.3,0.1,4.6,1,6.9,2.6
			c2.3,1.6,4.9,3.8,7.8,6.6c2,1.9,3.6,3.3,4.6,4.1c1,0.8,1.9,1.2,2.6,1.1c0.9,0,1.8-0.1,2.7-0.1c0.5,1.4,1,2.8,1.4,4.2
			c-4.2,1.4-8.4,2.9-12.6,4.3c-0.8,0.3-1.9-0.2-3.3-1.5c-1.4-1.2-3.4-3.3-5.9-6.1c-3-3.3-5.5-5.9-7.5-7.6c-2-1.8-3.7-2.7-5.3-2.7
			c-2.6,0.9-5.1,1.8-7.7,2.8c2.2,5.9,4.3,11.8,6.5,17.8c2.3-0.6,4.7-1.2,7-1.7c0.5,1.4,1,2.8,1.5,4.3c-7.8,2.8-15.6,5.7-23.4,8.6
			C351.1,780.7,350.6,779.3,350.1,777.9z M370.9,741.1c0.9-2.5,0.7-5.7-0.7-9.6c-1.2-3.5-2.9-5.8-5.1-6.9c-2.2-1.1-5.2-1-9.1,0.5
			c-1.4,0.5-2.6,1-3.5,1.5c-0.9,0.5-1.6,0.8-1.9,0.9c2.6,7.1,5.2,14.2,7.8,21.3c0.6-0.1,2.1-0.6,4.4-1.4c0.8-0.3,1.7-0.6,2.5-0.9
			C368.1,745.4,370,743.7,370.9,741.1z"/>
		<path d="M394.7,713.3c-2.1,0.4-4.3,0.7-6.4,1.1c-0.5-1.5-1-3-1.5-4.4c13.6-4.6,27.2-9,40.9-13.3c1.6,3.9,3.2,7.9,4.8,11.8
			c-1.8,0.6-3.6,1.1-5.3,1.7c-1.6-2.1-3.2-4.2-4.8-6.3c-5.6,1.5-11.2,3.1-16.8,4.7c2.1,6.4,4.2,12.9,6.3,19.3
			c3.5-1.2,7-2.4,10.4-3.6c-0.2-2.1-0.4-4.2-0.7-6.3c1.6-0.5,3.2-1,4.9-1.5c1.8,5.8,3.7,11.6,5.5,17.4c-1.6,0.5-3.2,1-4.8,1.5
			c-1.1-1.9-2.1-3.9-3.2-5.8c-3.5,1-7,2.1-10.6,3.2c2.2,6.8,4.4,13.5,6.6,20.3c5.9-2.2,11.8-4.5,17.8-6.6c0.5-3.5,1-7.1,1.5-10.6
			c2-0.1,4.1-0.2,6.1-0.2c0.7,4.6,1.4,9.2,2.1,13.8c-14.3,4.4-28.5,9-42.7,13.8c-0.5-1.4-1-2.9-1.5-4.3c1.9-0.9,3.7-1.8,5.6-2.7
			C404.2,741.9,399.4,727.6,394.7,713.3z"/>
		<path d="M455.1,688.2c3.9-1.2,7.9-2.3,11.8-3.4c10.6,14.7,21.1,29.5,31.4,44.4c1.5-0.2,3-0.3,4.6-0.5c0.4,1.5,0.8,2.9,1.2,4.4
			c-7.4,2-14.8,4-22.1,6.1c-0.4-1.5-0.8-2.9-1.2-4.4c1.8-0.8,3.6-1.6,5.4-2.3c-1.9-2.9-3.7-5.8-5.6-8.6c-6.5,1.8-13,3.7-19.5,5.7
			c0,3.5-0.1,6.9-0.1,10.4c2.1-0.4,4.2-0.8,6.3-1.1c0.4,1.4,0.9,2.9,1.3,4.4c-6.4,1.9-12.7,3.8-19,5.7c-0.5-1.4-0.9-2.9-1.4-4.3
			c1.4-0.7,2.8-1.4,4.3-2.1C453,724.3,453.9,706.3,455.1,688.2z M464,698.9c-1-1.8-2-3.5-3-5.3c0.1,2.1,0.1,4.1,0.2,6.2
			c-0.1,8.1-0.2,16.2-0.3,24.3c5.5-1.6,11.1-3.2,16.7-4.8C473,712.4,468.5,705.6,464,698.9z"/>
		<path d="M542.3,720.2c-1.7-1.6-4.1-4.2-7.3-7.7c-2.7-3.1-5-5.5-6.8-7.3c-1.8-1.8-3.5-3.3-5-4.4c-1.6,3.1-3.3,6.1-4.9,9.2
			c1.1,4.3,2.2,8.7,3.4,13c2.2-0.3,4.5-0.6,6.7-0.9c0.4,1.4,0.7,2.9,1.1,4.3c-7.8,2-15.6,4-23.4,6.1c-0.4-1.5-0.8-2.9-1.2-4.4
			c1.9-0.8,3.8-1.5,5.8-2.3c-3.9-14.6-7.7-29.1-11.6-43.7c-2.1,0.2-4.2,0.4-6.3,0.7c-0.4-1.5-0.8-3-1.2-4.5
			c7.8-2.1,15.6-4.1,23.4-6.1c0.4,1.5,0.8,3,1.2,4.5c-1.9,0.8-3.8,1.6-5.7,2.5c2,8,4.1,15.9,6.1,23.9c4.7-9.7,9.4-19.3,14.3-29
			c-2.2,0.2-4.4,0.4-6.6,0.6c-0.4-1.5-0.8-3-1.1-4.5c7-1.7,14-3.4,21.1-5.1c0.4,1.5,0.7,3,1.1,4.6c-2.1,0.8-4.2,1.7-6.2,2.5
			c-3.8,6.5-7.5,13.1-11.1,19.7c2.2,1.1,4.6,2.9,7.3,5.2c2.7,2.4,6,5.5,10,9.4c2.9,2.9,5.1,5,6.5,6.3c1.4,1.3,2.4,2,3.1,2.1
			c1.3,0,2.5,0,3.8,0c0.3,1.4,0.7,2.9,1,4.3c-4.5,1.1-9,2.1-13.5,3.2C545.2,722.5,544,721.8,542.3,720.2z"/>
		<path d="M557,667.9c-2.2,0.2-4.4,0.3-6.6,0.5c-0.4-1.5-0.7-3-1.1-4.6c14.4-3.3,28.8-6.5,43.2-9.4c1.2,4.4,2.4,8.8,3.5,13.2
			c-2.1,0.4-4.2,0.9-6.2,1.3c-1.5-2.5-3.1-5-4.6-7.5c-5.7,0.9-11.4,1.9-17,2.8c1.5,7,3.1,13.9,4.6,20.9c3.8-0.9,7.6-1.8,11.4-2.7
			c0-2.3,0.1-4.5,0.1-6.8c1.7-0.4,3.3-0.7,5-1c1.3,6.3,2.6,12.5,3.9,18.8c-1.6,0.3-3.2,0.7-4.8,1c-1-2.1-2-4.2-3-6.3
			c-3.8,0.7-7.7,1.4-11.5,2.2c1.4,6.4,2.8,12.8,4.3,19.3c3.9-0.6,7.9-1.2,11.8-1.8c0.3,1.5,0.6,3,0.9,4.4c-9.5,2-19,4.1-28.5,6.3
			c-0.3-1.5-0.7-2.9-1-4.4c1.9-0.7,3.8-1.4,5.7-2.1C563.7,697.2,560.3,682.6,557,667.9z"/>
		<path d="M616.6,649.3c4-0.8,8-1.5,12-2.2c9.1,15.7,18.1,31.4,26.9,47.2c1.5,0,3,0,4.6,0c0.3,1.5,0.5,3,0.8,4.5
			c-7.5,1.3-15,2.6-22.5,4c-0.3-1.5-0.5-3-0.8-4.5c1.9-0.6,3.7-1.2,5.6-1.8c-1.6-3-3.2-6.1-4.7-9.1c-6.6,1.2-13.3,2.4-19.9,3.7
			c-0.4,3.4-0.7,6.9-1.1,10.3c2.1-0.2,4.2-0.4,6.3-0.5c0.3,1.5,0.6,3,0.9,4.5c-6.5,1.2-12.9,2.5-19.4,3.8c-0.3-1.5-0.7-3-1-4.4
			c1.5-0.6,2.9-1.1,4.4-1.7C611.1,685.1,613.7,667.2,616.6,649.3z M624.3,660.8c-0.8-1.8-1.7-3.7-2.5-5.5c-0.1,2-0.3,4.1-0.4,6.1
			c-0.9,8-1.7,16.1-2.6,24.1c5.6-1.1,11.3-2.1,16.9-3.2C632.1,675.2,628.2,668,624.3,660.8z"/>
		<path d="M675.1,696.5c-2.3-0.1-4.8-0.3-7.6-0.6c-1.9-0.2-3.1-0.3-3.7-0.2c-0.5-4.6-1.1-9.3-1.6-13.9c2.1-0.3,4.2-0.7,6.2-1
			c1.1,3.1,2.2,6.2,3.3,9.4c0.8,0.6,2.1,1,3.9,1.3c1.8,0.3,3.8,0.2,6-0.1c3.4-0.5,5.9-1.7,7.4-3.4c1.5-1.7,2-3.9,1.6-6.6
			c-0.3-1.7-1-3.2-2.2-4.3c-1.2-1.1-2.8-2-4.8-2.8c-2-0.7-4.6-1.5-8-2.4c-4.6-1.2-8.5-2.9-11.8-5c-3.3-2.1-5.3-5.4-6-9.9
			c-0.5-2.8-0.1-5.4,1-7.9c1.1-2.5,3.1-4.7,5.9-6.5c2.8-1.8,6.4-3.1,10.8-3.7c2.6-0.4,4.9-0.6,6.9-0.5c2,0.1,4.2,0.2,6.7,0.5
			c1.4,0.1,2.5,0.2,3.2,0.2c0.5,4.4,0.9,8.8,1.4,13.2c-2.1,0.3-4.2,0.6-6.3,0.9c-1-3-2-6-3-8.9c-0.5-0.4-1.6-0.7-3-0.9
			c-1.5-0.2-3.1-0.2-4.8,0.1c-3.2,0.5-5.4,1.5-6.8,3.2c-1.4,1.6-1.9,3.6-1.5,5.9c0.3,1.8,1.1,3.3,2.5,4.5c1.4,1.2,3,2.1,4.8,2.7
			c1.8,0.7,4.6,1.6,8.5,2.7c3.1,0.9,5.8,1.9,8.1,2.8c2.3,1,4.3,2.4,6.1,4.3c1.8,1.9,2.9,4.2,3.3,7c0.4,2.7,0.1,5.5-1,8.2
			c-1.1,2.7-3.1,5.1-6,7.2c-2.9,2.1-6.9,3.5-11.8,4.3C679.9,696.5,677.4,696.6,675.1,696.5z"/>
		<path d="M721,638.1c-3.7,0.6-7.5,1.2-11.2,1.9c-0.3,5.6-0.6,11.2-0.9,16.7c-2.2,0.3-4.4,0.6-6.6,0.9c-0.6-7.3-1.1-14.5-1.7-21.8
			c17-2.4,34.1-4.5,51.1-6.4c1.1,7.2,2.2,14.4,3.3,21.6c-2.1,0.2-4.1,0.5-6.2,0.7c-1.6-5.3-3.3-10.7-4.9-16
			c-3.7,0.3-7.5,0.6-11.2,0.9c1.8,15.2,3.7,30.4,5.5,45.5c3.6-0.2,7.2-0.4,10.9-0.5c0.2,1.5,0.3,3,0.5,4.5c-10.7,1.2-21.3,2.5-32,4
			c-0.2-1.5-0.4-3-0.6-4.5c3.2-0.7,6.5-1.4,9.7-2C724.9,668.4,722.9,653.3,721,638.1z"/>
		<path d="M783.2,632c-2-0.1-4-0.3-6-0.4c-0.1-1.6-0.3-3.1-0.4-4.7c3.9-0.4,7.7-0.7,11.6-1.1c1.7-0.2,4.1-0.5,7.1-0.9
			c0.7-0.1,1.7-0.2,3.1-0.4c1.4-0.2,2.7-0.3,3.8-0.4c9.8-0.8,17.2,1,22.4,5.3c5.1,4.3,8,10.7,8.5,19.2c0.4,5.9-0.5,11.3-2.5,16.1
			c-2.1,4.8-5.2,8.6-9.3,11.5s-9.1,4.6-14.8,5c-1.5,0.1-3.8,0.2-7,0.3c-3,0-5,0.1-6.1,0.2c-3.9,0.3-7.8,0.7-11.7,1.1
			c-0.1-1.5-0.3-3-0.4-4.5c2-0.4,4-0.9,6-1.3C785.9,662,784.5,647,783.2,632z M805.9,676.3c5.1-0.5,9-2.8,11.7-7
			c2.7-4.2,3.7-10.2,3.2-18.1c-0.5-7.5-2.4-13.2-5.6-17.1c-3.2-3.9-8-5.6-14.3-5.1c-1.3,0.1-2.6,0.3-3.7,0.5c-1.2,0.2-2,0.4-2.5,0.5
			c1.3,15.4,2.6,30.7,3.9,46.1C800.3,676.5,802.7,676.6,805.9,676.3z"/>
		<path d="M844.5,627.5c-2.3-0.2-4.5-0.4-6.8-0.6c-0.1-1.6-0.2-3.1-0.3-4.7c8.5-0.5,17-0.9,25.5-1.3c0.1,1.6,0.1,3.1,0.2,4.7
			c-2.3,0.4-4.6,0.9-6.9,1.3c0.7,15,1.4,30.1,2.2,45.1c2.3,0.2,4.6,0.3,6.8,0.5c0.1,1.5,0.1,3,0.2,4.5c-8.2,0.4-16.4,0.8-24.7,1.3
			c-0.1-1.5-0.2-3-0.3-4.5c2.2-0.4,4.3-0.8,6.5-1.1C846.2,657.6,845.4,642.5,844.5,627.5z"/>
		<path d="M876.2,626.1c-2.1-0.3-4.2-0.5-6.3-0.7c-0.1-1.6-0.1-3.1-0.2-4.7c6-0.2,12.1-0.5,18.1-0.6c8.3,11.1,16.3,22.3,24.3,33.5
			c1.5,2.8,3,5.7,4.5,8.6c-0.2-12.3-0.3-24.6-0.5-37c-2.3-0.3-4.6-0.6-6.8-0.9c0-1.6-0.1-3.1-0.1-4.7c6.6-0.1,13.2-0.2,19.8-0.2
			c0,1.6,0,3.1,0,4.7c-2,0.3-4.1,0.7-6.1,1c0.2,16.8,0.3,33.7,0.5,50.5c-3.1,0-6.2,0.1-9.3,0.1c-8.2-11.8-16.5-23.5-25-35.2
			c-1.9-3.3-3.9-6.5-5.8-9.8c0.4,13.5,0.9,26.9,1.3,40.4c2.6,0.2,5.2,0.3,7.8,0.5c0,1.5,0.1,3,0.1,4.5c-6.8,0.2-13.6,0.4-20.4,0.7
			c-0.1-1.5-0.1-3-0.2-4.5c2-0.3,4.1-0.7,6.1-1C877.3,656.2,876.8,641.1,876.2,626.1z"/>
		<path d="M940,624.9c-2.1-0.3-4.2-0.7-6.3-1c0-1.6,0-3.1,0-4.7c6,0,12.1,0,18.1,0c7.8,11.4,15.5,22.8,23,34.3
			c1.4,2.9,2.8,5.8,4.2,8.7c0.3-12.3,0.6-24.6,0.9-36.9c-2.3-0.4-4.5-0.8-6.8-1.1c0-1.6,0.1-3.1,0.1-4.7c6.6,0.1,13.2,0.3,19.8,0.5
			c0,1.6-0.1,3.1-0.1,4.7c-2,0.3-4.1,0.5-6.1,0.8c-0.5,16.8-0.9,33.6-1.4,50.5c-3.1-0.1-6.2-0.2-9.3-0.2
			c-7.7-12.1-15.6-24.1-23.7-36.1c-1.8-3.3-3.6-6.7-5.5-10c-0.1,13.5-0.1,27-0.2,40.4c2.6,0.3,5.2,0.5,7.8,0.8c0,1.5,0,3,0,4.5
			c-6.8-0.1-13.6-0.1-20.4-0.1c0-1.5,0-3,0-4.5c2-0.3,4.1-0.5,6.1-0.8C940,655,940,640,940,624.9z"/>
		<path d="M1003.7,626.1c-2.1-0.4-4.2-0.8-6.3-1.2c0.1-1.6,0.1-3.1,0.2-4.7c14.2,0.5,28.3,1.1,42.4,2c0.1,4.2,0.2,8.5,0.3,12.7
			c-1.8-0.1-3.7-0.2-5.5-0.3c-0.7-2.5-1.5-5.1-2.2-7.6c-5.7-0.5-11.4-1-17.1-1.5c-0.3,6.8-0.6,13.5-0.9,20.3
			c3.6,0.1,7.3,0.2,10.9,0.3c0.5-2,1-4.1,1.6-6.1c1.7,0.1,3.4,0.2,5,0.3c-0.3,6.1-0.7,12.2-1,18.3c-1.7-0.1-3.3-0.2-5-0.3
			c-0.3-2.2-0.6-4.4-0.9-6.6c-3.6-0.3-7.2-0.5-10.9-0.7c-0.3,7.1-0.6,14.2-0.9,21.3c6.2,0,12.5,0,18.7,0c1.7-3.1,3.4-6.3,5-9.4
			c1.9,0.6,3.8,1.3,5.7,1.9c-1,4.6-1.9,9.1-2.9,13.7c-14.8-0.9-29.5-1.6-44.3-2.1c0.1-1.5,0.1-3,0.2-4.5c2-0.2,4.1-0.4,6.1-0.5
			C1002.6,656.2,1003.1,641.2,1003.7,626.1z"/>
		<path d="M1046.5,674.3c2-0.1,4.1-0.2,6.1-0.4c1-15,2-30.1,3.1-45.1c-2-0.5-3.9-1-5.9-1.4c0.1-1.5,0.2-3.1,0.3-4.6
			c3.8,0.2,7.7,0.5,11.5,0.8c1,0.1,2.1,0.1,3.3,0.2c1.2,0,2.2,0.1,2.8,0.1c2.8,0,5.1,0.1,6.9,0.2c5.5,0.4,9.8,1.3,13,2.7
			c3.2,1.3,5.4,3.2,6.7,5.5c1.3,2.3,1.8,5.2,1.4,8.7c-0.3,3.5-1.6,6.6-3.8,9.4c-2.2,2.8-5.2,4.6-8.9,5.4c2,1,3.7,2.7,5.1,5.2
			s2.9,5.5,4.3,9.3c1.1,2.6,1.9,4.4,2.5,5.6c0.6,1.1,1.2,1.8,1.9,2c0.8,0.3,1.6,0.7,2.5,1c-0.1,1.5-0.3,3-0.4,4.4
			c-4.4-0.4-8.7-0.8-13.1-1.2c-0.8-0.1-1.6-1-2.4-2.7c-0.8-1.7-1.7-4.4-2.9-8c-1.4-4.3-2.6-7.6-3.6-10c-1.1-2.4-2.3-3.9-3.6-4.6
			c-2.7-0.2-5.4-0.4-8-0.6c-0.5,6.3-0.9,12.6-1.4,18.8c2.3,0.4,4.7,0.9,7,1.3c-0.1,1.5-0.2,3-0.4,4.5c-8.2-0.6-16.3-1.2-24.5-1.8
			C1046.3,677.3,1046.4,675.8,1046.5,674.3z M1080.1,649.4c1.8-1.9,2.9-4.9,3.3-9.1c0.3-3.7-0.3-6.4-1.8-8.3c-1.5-1.9-4.3-3-8.4-3.3
			c-1.5-0.1-2.7-0.1-3.8-0.1c-1,0-1.7,0.1-2,0c-0.6,7.5-1.1,15.1-1.7,22.6c0.6,0.1,2.1,0.3,4.5,0.5c0.9,0.1,1.8,0.1,2.7,0.2
			C1075.9,652.1,1078.3,651.3,1080.1,649.4z"/>
		<path d="M1144.5,631.2c4,0.5,8.1,1,12.1,1.5c4,17.7,7.7,35.4,11.3,53.1c1.5,0.5,2.9,0.9,4.3,1.4c-0.2,1.5-0.4,3-0.6,4.5
			c-7.5-1.1-15.1-2.1-22.6-3c0.2-1.5,0.4-3,0.6-4.5c2,0,3.9,0,5.9,0c-0.6-3.4-1.2-6.8-1.7-10.1c-6.7-0.9-13.4-1.7-20-2.5
			c-1.4,3.2-2.8,6.3-4.1,9.5c2.1,0.5,4.1,0.9,6.2,1.4c-0.2,1.5-0.4,3-0.5,4.5c-6.5-0.8-13-1.5-19.6-2.2c0.1-1.5,0.3-3,0.4-4.5
			c1.6-0.1,3.1-0.2,4.7-0.3C1128.5,663.7,1136.4,647.4,1144.5,631.2z M1148.4,644.6c-0.2-2-0.5-4-0.7-6c-0.7,1.9-1.5,3.8-2.2,5.7
			c-3.3,7.4-6.5,14.8-9.7,22.2c5.7,0.7,11.4,1.4,17.1,2.1C1151.4,660.6,1149.9,652.6,1148.4,644.6z"/>
		<path d="M1187.1,642.9c-2-0.6-4.1-1.2-6.1-1.9c0.2-1.5,0.4-3.1,0.7-4.6c6,0.8,12,1.7,17.9,2.6c6.1,12.4,12.1,24.8,17.9,37.3
			c1,3.1,1.9,6.1,2.9,9.2c2.1-12.1,4.1-24.3,6.2-36.4c-2.2-0.7-4.4-1.4-6.6-2.1c0.3-1.5,0.5-3.1,0.8-4.6c6.5,1.1,13,2.2,19.6,3.4
			c-0.3,1.5-0.5,3.1-0.8,4.6c-2.1,0-4.1-0.1-6.2-0.1c-2.9,16.6-5.8,33.2-8.6,49.7c-3.1-0.5-6.2-1.1-9.2-1.6
			c-5.9-13.1-12-26.1-18.3-39.2c-1.3-3.6-2.6-7.1-4-10.7c-2,13.3-4,26.7-6,40c2.5,0.6,5.1,1.3,7.6,1.9c-0.2,1.5-0.5,3-0.7,4.5
			c-6.8-1-13.5-2-20.3-3c0.2-1.5,0.4-3,0.6-4.5c2.1,0,4.1,0.1,6.2,0.1C1182.7,672.7,1184.9,657.8,1187.1,642.9z"/>
		<path d="M1250.1,653.3c-1.9-0.7-3.8-1.4-5.7-2c0.3-1.5,0.6-3.1,0.8-4.6c3.8,0.7,7.7,1.4,11.5,2.1c1.7,0.3,4.1,0.7,7.1,1
			c0.7,0.1,1.7,0.2,3.1,0.4c1.4,0.2,2.6,0.4,3.7,0.7c9.6,1.9,16.4,5.7,20.2,11.2c3.8,5.5,4.8,12.5,3,20.8
			c-1.2,5.8-3.5,10.7-6.8,14.8c-3.3,4-7.3,6.9-12.1,8.6c-4.8,1.7-10,1.9-15.7,0.8c-1.5-0.3-3.8-0.8-6.9-1.6c-2.9-0.8-4.9-1.2-6-1.4
			c-3.9-0.7-7.7-1.4-11.6-2.1c0.3-1.5,0.5-3,0.8-4.5c2.1,0.1,4.1,0.2,6.2,0.4C1244.7,682.9,1247.4,668.1,1250.1,653.3z
			 M1260.1,702.1c5.1,0.9,9.5-0.3,13.2-3.6c3.7-3.3,6.3-8.8,7.9-16.5c1.5-7.4,1.2-13.3-0.9-18c-2.1-4.6-6.2-7.5-12.4-8.7
			c-1.3-0.3-2.6-0.4-3.8-0.5c-1.2-0.1-2-0.1-2.5-0.2c-2.9,15.1-5.8,30.3-8.7,45.4C1254.6,700.8,1257,701.5,1260.1,702.1z"/>
		<path d="M1328.2,669.5c-1.9-0.8-3.9-1.6-5.8-2.3c0.3-1.5,0.7-3,1-4.6c8.3,1.9,16.7,3.9,25,5.9c-0.4,1.5-0.7,3-1.1,4.6
			c-2.6-0.3-5.1-0.6-7.7-0.9c-3.5,14.6-7,29.3-10.5,43.9c5.5,1.1,10.9,2.2,16.4,3.3c2.7-4.2,5.5-8.3,8.2-12.5c2,0.8,4,1.6,6,2.4
			c-2.4,6-4.8,12.1-7.2,18.1c-13.9-3.5-27.8-6.9-41.7-10.1c0.3-1.5,0.7-2.9,1-4.4c2.1,0.2,4.1,0.4,6.2,0.6
			C1321.4,698.9,1324.8,684.2,1328.2,669.5z"/>
		<path d="M1369.2,726.5c-2.7-4.7-3.1-11-1-18.9c2.3-8.8,4.6-17.6,6.9-26.4c-1.6-0.8-3.2-1.5-4.9-2.3c0.4-1.5,0.8-3,1.2-4.5
			c7.8,2,15.6,4.1,23.5,6.2c-0.4,1.5-0.8,3-1.2,4.5c-2.3-0.3-4.6-0.5-6.9-0.8c-2.4,9.1-4.9,18.1-7.3,27.2c-3.1,11.6-0.4,18.5,8,20.9
			c4.2,1.2,7.7,0.5,10.5-1.9c2.9-2.4,5.1-6.3,6.6-11.7c2.6-9.1,5.2-18.3,7.8-27.4c-2.1-1-4.2-1.9-6.3-2.9c0.4-1.5,0.8-3,1.3-4.5
			c6.5,1.8,12.9,3.7,19.3,5.6c-0.4,1.5-0.9,3-1.3,4.5c-1.8-0.2-3.7-0.4-5.5-0.6c-2.6,9-5.2,17.9-7.8,26.9
			c-2.2,7.5-5.7,12.6-10.5,15.1c-4.8,2.5-10.4,2.9-16.8,1.1C1377.1,734.5,1371.9,731.2,1369.2,726.5z"/>
		<path d="M1435.1,698c-1.9-0.9-3.9-1.8-5.8-2.8c0.4-1.5,0.9-3,1.3-4.5c5.8,1.7,11.7,3.5,17.5,5.3c4.3,13.2,8.4,26.4,12.4,39.6
			c0.5,3.2,1,6.4,1.5,9.6c3.8-11.7,7.7-23.4,11.5-35.1c-2.1-1-4.2-2.1-6.3-3.1c0.5-1.5,1-3,1.4-4.5c6.3,2,12.7,4.1,19,6.3
			c-0.5,1.5-1,3-1.5,4.4c-2.1-0.3-4.1-0.7-6.2-1c-5.3,16-10.6,32-15.9,47.9c-3-1-6-2-9-2.9c-4-13.8-8.2-27.7-12.6-41.5
			c-0.8-3.7-1.6-7.5-2.4-11.2c-3.9,12.9-7.9,25.8-11.8,38.7c2.4,1,4.9,2,7.3,3c-0.4,1.4-0.9,2.9-1.3,4.3c-6.6-2-13.2-4-19.8-6
			c0.4-1.4,0.9-2.9,1.3-4.3c2,0.3,4.1,0.7,6.1,1C1426.4,726.9,1430.7,712.4,1435.1,698z"/>
		<path d="M1482.4,759.1c-2.8-6.4-2.8-13.7,0-22.1c1.9-5.5,4.7-10,8.5-13.3c3.8-3.3,8.2-5.4,13.2-6.1c5-0.8,10.2-0.2,15.5,1.7
			c2.2,0.8,4.3,1.7,6.3,2.7c2,1,4.3,2.3,7,3.7c2,1.1,3.1,1.7,3.3,1.8c-2.1,4.8-4.2,9.5-6.2,14.3c-2.3-0.9-4.6-1.7-6.9-2.5
			c0.5-3.7,0.9-7.3,1.3-11c-0.4-0.7-1.2-1.5-2.4-2.3c-1.2-0.8-2.9-1.6-5.1-2.4c-4.3-1.5-8.4-0.9-12.3,1.9c-3.9,2.8-7.1,7.8-9.5,14.9
			c-2.4,6.9-3.1,12.9-2.2,18c0.9,5.2,3.7,8.6,8.3,10.2c2.2,0.8,4,1.2,5.3,1.2c1.4,0,2.6-0.2,3.7-0.6c2-2,3.9-4.1,5.9-6.1
			c2,0.9,4,1.9,6,2.9c-1.8,3.5-3.7,7-5.5,10.4c-1.1-0.3-2.1-0.5-3.3-0.6c-1.1-0.1-1.8-0.2-2-0.2c-2.2-0.2-4.1-0.4-5.9-0.7
			c-1.8-0.3-3.9-0.9-6.4-1.8C1490.7,770.1,1485.2,765.5,1482.4,759.1z"/>
		<path d="M1546.5,735.8c-1.7-1-3.5-2-5.2-3c0.5-1.5,1.1-2.9,1.6-4.4c7.7,2.9,15.4,5.8,23,8.8c-0.6,1.5-1.1,2.9-1.7,4.4
			c-2.2-0.5-4.5-1-6.7-1.5c-2.3,5.9-4.6,11.8-6.8,17.7c7.6,2.9,15.1,5.9,22.6,8.9c2.4-5.9,4.7-11.7,7.1-17.6
			c-1.8-1.1-3.6-2.2-5.4-3.2c0.6-1.5,1.2-2.9,1.7-4.4c7.5,3,15.1,6.1,22.6,9.2c-0.6,1.4-1.2,2.9-1.8,4.3c-2-0.5-4-1-6.1-1.4
			c-5.7,13.9-11.4,27.9-17.1,41.8c1.8,1,3.5,2,5.3,3c-0.6,1.4-1.2,2.8-1.7,4.2c-7.3-3-14.6-6-21.9-8.9c0.6-1.4,1.1-2.8,1.7-4.2
			c2,0.5,4,1,6,1.6c2.5-6.3,5.1-12.7,7.6-19c-7.5-3-15-6-22.5-8.9c-2.5,6.4-4.9,12.7-7.4,19.1c2,1,3.9,2.1,5.9,3.1
			c-0.5,1.4-1.1,2.8-1.6,4.2c-7.5-2.9-14.9-5.8-22.4-8.6c0.5-1.4,1.1-2.8,1.6-4.2c2,0.5,3.9,0.9,5.9,1.4
			C1535.8,764,1541.1,749.9,1546.5,735.8z"/>
	</g>
</g>
</svg>
