<?xml version="1.0" encoding="utf-8"?>
<!-- Generator: Adobe Illustrator 27.5.0, SVG Export Plug-In . SVG Version: 6.00 Build 0)  -->
<svg version="1.1" id="Layer_1" xmlns="http://www.w3.org/2000/svg" xmlns:xlink="http://www.w3.org/1999/xlink" x="0px" y="0px"
	 viewBox="0 0 1783.3 459.9" style="enable-background:new 0 0 1783.3 459.9;" xml:space="preserve">
<g>
	<path d="M38.3,189.8c-10,2.3-20,4.8-30,7.2c-2.8-6.7-5.5-13.4-8.3-20.1c19.1-7.9,38.3-15.6,57.6-22.9c5.4-2.1,13.6-5.4,24.7-10
		c14.5-6.4,27.9-11.6,40-15.9c26.8-9.3,49.1-13.4,66.5-12.7c17.5,0.7,31.1,5.6,40.8,14.2c9.8,8.7,17,21.3,21.8,37.6
		c8.3,28.3,5,53.1-9.3,74.7c-14.3,21.6-37.8,37.7-71,49.4c-13.1,4.6-22.7,7.8-28.6,9.2c8,21.6,15.9,43.3,23.9,64.9
		c15.8-4.6,31.7-9,47.6-13.2c2.3,6.6,4.5,13.3,6.8,19.9c-41.2,14.1-82.1,29.5-122.6,46.3c-2.7-6.5-5.4-13-8.1-19.5
		c8.5-4.8,17.1-9.5,25.7-14.2C90,319.8,64.2,254.8,38.3,189.8z M163.3,271c16.2-5.7,27.4-15.2,33.8-28.8c6.4-13.6,5.9-32.4-1.9-56.5
		c-6-18.7-15.1-30.9-27.2-36.3c-12.1-5.5-27.9-4.9-47,1.8c-7.1,2.5-14.4,5.6-21.7,9.3c-3.4,1.7-5.9,2.9-7.4,3.4
		c14.2,38.5,28.4,77.1,42.6,115.6C140.4,278.6,150,275.7,163.3,271L163.3,271z"/>
	<path d="M345.1,63.3c20.1-4.8,40.4-9.4,60.6-13.7c47,71,91.1,143.2,132,216.6c7.1,0,14.3,0,21.4,0c1.1,6.9,2.2,13.9,3.3,20.8
		c-34.9,5.6-69.7,12.1-104.3,19.5c-1.5-6.9-2.9-13.7-4.4-20.6c8.6-3.1,17.3-6,26-9c-7.6-14-15.4-27.9-23.2-41.9
		c-31.5,6.5-62.9,13.8-94.1,21.7c-0.9,16.1-1.7,32.1-2.5,48.1c9.8-1.5,19.6-2.9,29.4-4.2c1.7,6.8,3.4,13.6,5,20.4
		c-29.8,7.4-59.4,15.4-89,24.1c-2.1-6.7-4.2-13.4-6.3-20.1c6.7-3.2,13.4-6.4,20.1-9.5C324.8,231.8,333.3,147.6,345.1,63.3
		L345.1,63.3z M385.6,114.8c-4.3-8.4-8.7-16.7-13.1-25.1c-0.4,9.6-0.8,19.2-1.1,28.7c-3.2,37.7-5.9,75.3-8,112.8
		c26.9-6.7,53.8-13,80.8-18.7C425.2,179.7,405.7,147.1,385.6,114.8L385.6,114.8z"/>
	<path d="M568.4,264.7c9.3-2.6,18.5-5.2,27.9-7.7c-9.8-69.3-19.7-138.5-29.5-207.8c-10.1-0.2-20.3-0.4-30.4-0.4
		c-1.1-7.1-2.2-14.1-3.3-21.2c19.3-3,38.7-5.8,58.1-8.3c5.1-0.7,10.7-1.5,16.8-2.5c6.1-1,10.8-1.8,14-2.4
		c13.8-2.5,25.3-4.2,34.4-5.1c27.6-2.8,50-2.1,67,1.6c17,3.7,29.5,10.5,37.5,20.1c8,9.6,12.4,22.7,13.2,39
		c0.8,16.1-3.2,31.3-11.9,45.7c-8.7,14.3-21.6,24.6-38.8,31.1c10.4,3.2,19.8,9.8,28.3,19.8c8.4,10,17.4,23.2,26.9,39.6
		c6.7,11.1,11.8,19.1,15.3,24c3.5,4.9,6.8,7.6,10,8.2c4,1,8.1,2,12.1,3c0.2,6.9,0.5,13.8,0.7,20.7c-20.3,0.7-40.6,1.8-60.9,3.1
		c-3.8,0.2-8.1-3.3-12.8-10.6c-4.7-7.3-11.1-18.8-19.2-34.6c-9.6-18.5-17.9-32.8-24.8-43c-6.9-10.2-14-16.2-21-18.1
		c-12.9,1.3-25.8,2.6-38.7,4.1c3.4,29.1,6.7,58.1,10.1,87.2c11.2-0.1,22.4-0.2,33.6-0.1c0.7,7,1.4,14,2.1,21
		c-37.8,3.8-75.6,8.6-113.2,14.5C570.6,278.6,569.5,271.7,568.4,264.7L568.4,264.7z M704.2,120.5c7.4-10.2,10.4-24.9,8.9-44
		c-1.3-17-6.5-29.3-15.5-36.8c-9-7.4-23.8-10.3-44.3-8.2c-7.4,0.8-13.7,1.8-18.8,2.9c-5.1,1.2-8.5,1.8-10,2
		c4,34.9,8.1,69.7,12.1,104.6c3.1,0.1,10.5-0.5,22.1-1.8c4.3-0.5,8.6-0.9,12.9-1.3C686.1,136.5,696.9,130.8,704.2,120.5z"/>
	<path d="M798.3,1.8c40.9-1.6,81.8-2.2,122.6-1.6c-0.1,7.2-0.2,14.5-0.3,21.8c-11.3,1.4-22.7,2.8-34,4.4
		c19.9,52.4,38.5,105,55.7,157.9c3.3,11.9,6.6,23.8,9.8,35.7c3.4-11.8,6.8-23.7,10.3-35.5c19.1-51.7,39.4-103.1,61-154.3
		c-10.4-2.1-20.8-4.2-31.3-6.2c0.3-7.2,0.6-14.5,1-21.7c32.5,1.4,65,3.5,97.5,6.3c-0.6,7.2-1.2,14.4-1.9,21.7
		c-8.6,0.8-17.2,1.6-25.9,2.5c-36.4,76.5-69.7,153.8-99.9,231.8c-14.2-0.5-28.4-0.8-42.6-1.1c-28.9-79.4-61.3-158.2-97.1-236.1
		c-8-1.3-16.1-2.5-24.1-3.7C798.9,16.3,798.6,9.1,798.3,1.8L798.3,1.8z"/>
	<path d="M1192.4,18.2c20.5,2.7,40.9,5.6,61.3,8.8c18.5,83.1,33.8,166.3,45.8,249.5c6.7,2.5,13.3,5.1,20,7.7
		c-1.4,6.9-2.9,13.7-4.3,20.6c-34.7-7.3-69.5-13.6-104.4-19.1c1.1-6.9,2.2-13.9,3.2-20.8c9.2,0.2,18.3,0.6,27.5,0.9
		c-2.1-15.8-4.3-31.6-6.7-47.4c-31.7-5.2-63.4-9.6-95.2-13.3c-6.6,14.7-13,29.4-19.4,44.1c9.6,2.1,19.2,4.3,28.8,6.6
		c-0.9,7-1.7,13.9-2.6,20.9c-30.3-3.8-60.6-6.9-91-9.3c0.4-7,0.9-14,1.3-21c7.3-0.6,14.6-1.2,22-1.7
		C1113.5,168.2,1151.4,92.7,1192.4,18.2L1192.4,18.2z M1211.7,80.7c-1.1-9.4-2.1-18.7-3.2-28.1c-3.8,8.8-7.5,17.6-11.2,26.4
		c-16.4,34-32.3,68.2-47.7,102.5c27.3,3.3,54.6,7.1,81.8,11.4C1225.4,155.5,1218.9,118.1,1211.7,80.7L1211.7,80.7z"/>
	<path d="M1469.2,96.8c-18.7-4.2-37.5-8.2-56.3-12c-10.9,23.7-21.6,47.4-32.1,71.2c-10.6-2.4-21.2-4.7-31.8-6.9
		c9.1-32.6,18.3-65.3,27.6-97.8c85.3,18.2,169.8,41.2,253.2,69c-9.2,32.6-18.4,65.2-27.7,97.7c-9.8-3.3-19.5-6.5-29.3-9.6
		c3-25.8,5.8-51.7,8.4-77.6c-17.9-6.2-35.9-12.2-54-18c-19.6,68.3-39.1,136.5-58.7,204.8c16.1,5.8,32.1,11.9,48.1,18.1
		c-2.1,6.7-4.2,13.4-6.3,20.1c-48.1-15.1-96.6-28.3-145.4-39.8c1.6-6.8,3.2-13.7,4.8-20.5c15.4,2.4,30.8,5,46.2,7.8
		C1433.6,234.3,1451.4,165.5,1469.2,96.8L1469.2,96.8z"/>
	<path d="M1684.4,167.2c-10.2-5.4-20.6-10.7-30.9-15.9c2.4-6.8,4.8-13.7,7.2-20.5c41.2,14.4,82.1,30,122.6,46.8
		c-2.8,6.7-5.6,13.4-8.3,20.1c-11.6-3.2-23.2-6.2-34.9-9.2c-25.8,65.1-51.5,130.1-77.3,195.1c9.6,5.2,19.1,10.4,28.7,15.8
		c-2.6,6.4-5.3,12.8-7.9,19.1c-36-14.9-72.3-28.8-108.9-41.6c2.3-6.6,4.6-13.2,6.9-19.9c10.2,2.3,20.4,4.7,30.6,7.2
		C1636.2,298.6,1660.3,232.9,1684.4,167.2L1684.4,167.2z"/>
</g>
<g>
	<path d="M260.6,413.1c-2,0.5-4,1-5.9,1.4c-0.6-1.4-1.1-2.8-1.7-4.1c3.5-1.5,7.1-2.9,10.7-4.4c1.6-0.7,3.7-1.6,6.2-2.8
		c0.6-0.3,1.3-0.6,2.2-1c0.8-0.4,1.8-0.8,3-1.3c7.2-2.9,12.7-3.9,16.3-3.1c3.6,0.8,6.2,3.1,7.6,6.8c1.3,3.3,1.3,6.5,0,9.5
		c-1.3,3-3.5,5.5-6.7,7.3c4.7-1.9,8.7-2.3,12.2-1.2c3.5,1,5.9,3.4,7.3,7.1c1.8,4.7,1.5,9.1-0.8,13.2c-2.3,4.1-7.4,7.7-15.4,10.9
		c-2.1,0.8-4,1.5-5.8,2.1c-0.5,0.2-1.3,0.5-2.4,0.9c-1.1,0.4-2.3,0.8-3.4,1.3c-3.5,1.4-7,2.9-10.5,4.3c-0.6-1.3-1.1-2.7-1.6-4
		c1.7-1,3.5-2,5.2-2.9C271.5,439.7,266,426.4,260.6,413.1L260.6,413.1z M280.8,424.3c1.1-0.4,2.2-0.9,3.3-1.3
		c2.9-1.1,4.7-2.8,5.5-5.1c0.8-2.2,0.5-4.9-0.7-8c-1.1-3-2.7-4.8-4.7-5.6s-4.7-0.5-8.2,0.9c-0.9,0.4-2.8,1.2-5.5,2.5
		c2.4,5.9,4.8,11.9,7.1,17.8C278.2,425.4,279.2,425,280.8,424.3z M293.5,447.3c4-1.6,6.5-3.6,7.5-6.1c1.1-2.5,1-5.4-0.4-8.8
		c-1.3-3.3-3-5.3-5.2-6.1c-2.2-0.8-5-0.5-8.6,0.9c-3.9,1.6-6.4,2.6-7.4,3.1c2.5,6.3,5,12.5,7.6,18.8
		C288.3,449.1,290.5,448.5,293.5,447.3L293.5,447.3z"/>
	<path d="M320.9,436.5c1.8-0.9,3.5-1.8,5.3-2.8c-5-13.5-10-26.9-15-40.4c-1.9,0.4-3.8,0.7-5.8,1.1c-0.5-1.4-1-2.7-1.5-4.1
		c3.5-1.3,7-2.6,10.5-3.9c0.9-0.3,1.9-0.7,3-1.2c1.1-0.5,1.9-0.8,2.5-1.1c2.4-1.1,4.5-1.9,6.1-2.5c5-1.8,9.1-2.7,12.5-2.8
		c3.3-0.1,6,0.6,8.1,2.1c2,1.5,3.6,3.8,4.7,7c1.1,3.1,1.2,6.3,0.4,9.6s-2.8,6-5.7,8.2c2.2,0.1,4.4,0.9,6.5,2.4s4.7,3.6,7.4,6.3
		c2,1.8,3.4,3.1,4.4,3.9c1,0.8,1.8,1.1,2.4,1c0.9,0,1.7-0.1,2.6-0.1c0.5,1.3,0.9,2.7,1.4,4c-4,1.4-8,2.7-12,4.1
		c-0.8,0.3-1.8-0.2-3.1-1.4s-3.2-3.1-5.7-5.8c-2.9-3.2-5.2-5.6-7.1-7.3c-1.9-1.7-3.6-2.5-5-2.6c-2.4,0.9-4.9,1.8-7.3,2.6
		c2,5.6,4.1,11.3,6.2,16.9c2.2-0.6,4.5-1.1,6.7-1.7c0.5,1.4,1,2.7,1.5,4.1c-7.4,2.7-14.9,5.4-22.3,8.2
		C321.9,439.1,321.4,437.8,320.9,436.5L320.9,436.5z M340.7,401.4c0.9-2.4,0.6-5.5-0.7-9.2c-1.2-3.3-2.8-5.5-4.9-6.5
		c-2.1-1-5-0.9-8.7,0.4c-1.4,0.5-2.5,1-3.4,1.4s-1.5,0.7-1.8,0.8c2.5,6.8,4.9,13.5,7.4,20.3c0.6-0.1,2-0.6,4.2-1.4
		c0.8-0.3,1.6-0.6,2.4-0.9C338.1,405.5,339.9,403.9,340.7,401.4L340.7,401.4z"/>
	<path d="M363.3,374.9c-2,0.4-4.1,0.7-6.1,1.1c-0.5-1.4-0.9-2.8-1.4-4.2c13-4.4,25.9-8.6,39-12.6c1.5,3.8,3,7.5,4.5,11.3
		c-1.7,0.5-3.4,1.1-5.1,1.6c-1.5-2-3-4-4.5-6c-5.3,1.4-10.6,2.9-16,4.4c2,6.1,4,12.3,6,18.4c3.3-1.2,6.6-2.3,10-3.4
		c-0.2-2-0.4-4-0.6-6c1.5-0.5,3.1-1,4.6-1.5c1.8,5.5,3.5,11.1,5.2,16.6c-1.5,0.5-3.1,1-4.6,1.5c-1-1.9-2-3.7-3-5.5
		c-3.4,1-6.7,2-10,3l6.3,19.3c5.6-2.1,11.3-4.2,16.9-6.3c0.5-3.4,0.9-6.7,1.4-10.1c1.9-0.1,3.9-0.1,5.8-0.2c0.7,4.4,1.3,8.8,2,13.2
		c-13.6,4.2-27.2,8.6-40.7,13.1c-0.5-1.4-0.9-2.7-1.4-4.1c1.8-0.9,3.6-1.7,5.4-2.6C372.4,402.2,367.9,388.6,363.3,374.9L363.3,374.9
		z"/>
	<path d="M420.9,351c3.8-1.1,7.5-2.2,11.3-3.2c10.1,14,20.1,28.1,29.9,42.3c1.5-0.1,2.9-0.3,4.4-0.4c0.4,1.4,0.8,2.8,1.1,4.2
		c-7,1.9-14,3.9-21.1,5.9c-0.4-1.4-0.8-2.8-1.2-4.1c1.7-0.7,3.5-1.5,5.2-2.2c-1.8-2.7-3.6-5.5-5.3-8.2c-6.2,1.8-12.4,3.6-18.6,5.4
		c0,3.3-0.1,6.6-0.1,9.9c2-0.4,4-0.7,6-1.1c0.4,1.4,0.8,2.8,1.2,4.1c-6,1.8-12.1,3.6-18.1,5.5c-0.5-1.4-0.9-2.7-1.3-4.1
		c1.4-0.7,2.7-1.3,4.1-2C418.9,385.4,419.8,368.2,420.9,351L420.9,351z M429.3,361.2c-1-1.7-1.9-3.3-2.9-5c0.1,2,0.1,3.9,0.2,5.9
		c-0.1,7.7-0.2,15.4-0.2,23.1c5.3-1.6,10.6-3.1,15.9-4.6C438,374.1,433.7,367.6,429.3,361.2L429.3,361.2z"/>
	<path d="M504,381.5c-1.6-1.5-3.9-4-6.9-7.4c-2.6-2.9-4.8-5.2-6.5-7c-1.7-1.7-3.3-3.1-4.8-4.2c-1.6,2.9-3.1,5.8-4.6,8.8
		c1.1,4.1,2.1,8.3,3.2,12.4c2.1-0.3,4.2-0.5,6.4-0.8c0.4,1.4,0.7,2.8,1,4.1c-7.4,1.9-14.9,3.8-22.3,5.8c-0.4-1.4-0.8-2.8-1.1-4.2
		c1.8-0.7,3.6-1.5,5.5-2.2c-3.7-13.9-7.4-27.8-11-41.6c-2,0.2-4,0.4-6,0.6c-0.4-1.4-0.8-2.9-1.2-4.3c7.4-2,14.9-3.9,22.3-5.8
		c0.4,1.4,0.7,2.9,1.1,4.3c-1.8,0.8-3.6,1.6-5.5,2.4c2,7.6,3.9,15.1,5.9,22.7c4.4-9.2,9-18.4,13.6-27.6c-2.1,0.2-4.2,0.4-6.3,0.6
		c-0.4-1.4-0.7-2.9-1.1-4.3c6.7-1.7,13.4-3.3,20.1-4.9c0.3,1.4,0.7,2.9,1,4.3c-2,0.8-4,1.6-5.9,2.4c-3.6,6.2-7.1,12.5-10.6,18.7
		c2.1,1.1,4.4,2.7,7,5c2.6,2.3,5.7,5.2,9.5,9c2.8,2.7,4.8,4.7,6.2,6c1.4,1.2,2.3,1.9,2.9,2c1.2,0,2.4,0,3.6,0c0.3,1.4,0.7,2.8,1,4.1
		c-4.3,1-8.6,2-12.9,3.1C506.7,383.6,505.6,383,504,381.5L504,381.5z"/>
	<path d="M517.9,331.6c-2.1,0.2-4.2,0.3-6.3,0.5c-0.3-1.4-0.7-2.9-1-4.4c13.7-3.2,27.4-6.2,41.2-9c1.1,4.2,2.2,8.4,3.4,12.6
		c-2,0.4-4,0.8-5.9,1.2c-1.5-2.4-2.9-4.8-4.4-7.2c-5.4,0.9-10.8,1.8-16.2,2.7c1.5,6.6,2.9,13.3,4.4,19.9c3.6-0.9,7.3-1.7,10.9-2.6
		c0-2.2,0-4.3,0.1-6.5c1.6-0.3,3.1-0.7,4.7-1c1.2,6,2.5,11.9,3.8,17.9c-1.5,0.3-3.1,0.6-4.6,1c-0.9-2-1.9-4-2.8-6
		c-3.7,0.7-7.3,1.4-11,2.1c1.4,6.1,2.7,12.2,4.1,18.4c3.7-0.6,7.5-1.1,11.2-1.7c0.3,1.4,0.6,2.8,0.9,4.2c-9.1,1.9-18.1,4-27.2,6.1
		c-0.3-1.4-0.6-2.8-1-4.2c1.8-0.7,3.6-1.3,5.4-2C524.3,359.6,521.1,345.6,517.9,331.6L517.9,331.6z"/>
	<path d="M574.7,313.9c3.8-0.7,7.6-1.4,11.5-2.1c8.7,14.9,17.2,29.9,25.6,45c1.5,0,2.9,0,4.4,0c0.2,1.4,0.5,2.8,0.7,4.3
		c-7.1,1.2-14.3,2.5-21.4,3.8c-0.3-1.4-0.5-2.8-0.8-4.2c1.8-0.6,3.5-1.1,5.3-1.7c-1.5-2.9-3-5.8-4.5-8.7c-6.3,1.1-12.6,2.3-18.9,3.6
		c-0.3,3.3-0.7,6.5-1,9.8c2-0.2,4-0.3,6-0.5c0.3,1.4,0.5,2.8,0.8,4.2c-6.2,1.2-12.3,2.4-18.5,3.7c-0.3-1.4-0.6-2.8-0.9-4.2
		c1.4-0.5,2.8-1.1,4.2-1.6C569.5,348,572,330.9,574.7,313.9L574.7,313.9z M582.1,324.9c-0.8-1.8-1.6-3.5-2.4-5.3
		c-0.1,2-0.2,3.9-0.4,5.9c-0.8,7.7-1.6,15.3-2.4,23c5.4-1,10.8-2.1,16.1-3C589.4,338.5,585.8,331.7,582.1,324.9L582.1,324.9z"/>
	<path d="M630.5,358.8c-2.2-0.1-4.6-0.3-7.3-0.6c-1.8-0.2-3-0.3-3.5-0.2c-0.5-4.4-1-8.8-1.5-13.2c2-0.3,4-0.7,5.9-1
		c1,3,2.1,5.9,3.1,8.9c0.7,0.6,2,1,3.7,1.2c1.7,0.3,3.6,0.2,5.7-0.1c3.3-0.5,5.6-1.6,7-3.2c1.4-1.6,2-3.7,1.6-6.2
		c-0.2-1.7-1-3-2.1-4.1c-1.2-1.1-2.7-1.9-4.5-2.7c-1.9-0.7-4.4-1.5-7.6-2.3c-4.4-1.2-8.1-2.8-11.2-4.8c-3.1-2-5-5.2-5.7-9.5
		c-0.4-2.6-0.1-5.2,1-7.6c1.1-2.4,3-4.5,5.6-6.2s6.1-2.9,10.3-3.6c2.5-0.4,4.7-0.5,6.6-0.5c1.9,0.1,4,0.2,6.3,0.4
		c1.3,0.1,2.4,0.2,3,0.2c0.5,4.2,0.9,8.4,1.4,12.5c-2,0.3-4,0.6-6,0.9c-1-2.8-1.9-5.7-2.9-8.5c-0.5-0.4-1.5-0.6-2.9-0.8
		c-1.4-0.2-3-0.2-4.6,0.1c-3,0.5-5.2,1.5-6.5,3c-1.3,1.5-1.8,3.4-1.5,5.6c0.3,1.8,1.1,3.2,2.4,4.3c1.3,1.1,2.8,2,4.6,2.6
		c1.7,0.6,4.4,1.5,8.1,2.6c3,0.9,5.5,1.8,7.7,2.7c2.2,0.9,4.1,2.3,5.8,4.1c1.7,1.8,2.8,4,3.1,6.6c0.4,2.6,0.1,5.2-0.9,7.8
		s-2.9,4.9-5.7,6.9c-2.8,2-6.6,3.4-11.3,4.1C635,358.7,632.6,358.9,630.5,358.8L630.5,358.8z"/>
	<path d="M674.2,303.1c-3.6,0.6-7.1,1.2-10.7,1.8c-0.3,5.3-0.5,10.6-0.8,15.9c-2.1,0.3-4.2,0.6-6.2,0.9c-0.5-6.9-1.1-13.9-1.6-20.8
		c16.2-2.3,32.4-4.3,48.7-6.1c1.1,6.9,2.1,13.7,3.2,20.6c-2,0.2-3.9,0.4-5.9,0.7c-1.6-5.1-3.1-10.2-4.7-15.3
		c-3.5,0.3-7.1,0.6-10.7,0.9c1.8,14.5,3.5,28.9,5.3,43.4c3.5-0.2,6.9-0.3,10.3-0.5c0.2,1.4,0.3,2.9,0.5,4.3
		c-10.2,1.2-20.3,2.4-30.5,3.8c-0.2-1.4-0.4-2.9-0.6-4.3c3.1-0.7,6.2-1.3,9.3-2C677.9,332,676,317.6,674.2,303.1z"/>
	<path d="M733.4,297.3c-2-0.1-3.9-0.3-5.9-0.4c-0.1-1.5-0.3-3-0.4-4.4c8.1-0.8,16.2-1.5,24.2-2.1c0.1,1.5,0.2,3,0.4,4.4
		c-2.4,0.5-4.8,1-7.2,1.5c1.2,14.3,2.4,28.6,3.6,42.8c5.2-0.7,10.5-1.3,15.7-1.9c1.2-4.6,2.4-9.2,3.7-13.8c2,0.1,4,0.2,6.1,0.4
		c-0.3,6.2-0.7,12.4-1,18.6c-13.5,0.9-27,2.1-40.5,3.4c-0.1-1.4-0.3-2.9-0.4-4.3c1.9-0.4,3.8-0.8,5.7-1.3
		C736,325.9,734.7,311.6,733.4,297.3L733.4,297.3z"/>
	<path d="M787.2,336.5c-3.8-3.4-6-9-6.5-16.8c-0.5-8.6-1.1-17.3-1.7-25.9c-1.7-0.2-3.4-0.4-5-0.6c-0.1-1.5-0.2-3-0.3-4.5
		c7.6-0.5,15.3-1,22.9-1.4c0.1,1.5,0.2,3,0.2,4.5c-2.1,0.4-4.2,0.9-6.4,1.4c0.5,8.9,1,17.9,1.5,26.8c0.7,11.4,5.1,16.9,13.4,16.5
		c4.1-0.2,7-1.8,8.9-4.8c1.8-3,2.7-7.2,2.4-12.5c-0.4-9-0.8-18.1-1.1-27.1c-2.2-0.2-4.4-0.5-6.5-0.7c-0.1-1.5-0.1-3-0.2-4.5
		c6.3-0.3,12.7-0.5,19-0.8c0,1.5,0.1,3,0.2,4.5c-1.7,0.4-3.4,0.7-5.1,1.1c0.3,8.9,0.7,17.8,1,26.6c0.3,7.5-1.4,13.1-5,16.8
		s-8.5,5.8-14.7,6.1C796.7,341.4,791.1,339.9,787.2,336.5L787.2,336.5z"/>
	<path d="M837.8,291c-2-0.3-4-0.5-6-0.8c0-1.5-0.1-3-0.1-4.5c5.7-0.2,11.5-0.3,17.2-0.5c7.8,10.6,15.4,21.3,22.9,32.1
		c1.4,2.7,2.8,5.4,4.2,8.2c-0.1-11.7-0.1-23.5-0.2-35.2c-2.2-0.3-4.3-0.6-6.5-0.9c0-1.5,0-3,0-4.5c6.3,0,12.5-0.1,18.8-0.1
		c0,1.5,0,3,0,4.5c-1.9,0.3-3.9,0.6-5.8,0.9c0,16,0,32.1,0,48.1c-3,0-5.9,0-8.9,0c-7.7-11.3-15.5-22.5-23.5-33.7
		c-1.8-3.1-3.6-6.3-5.5-9.4c0.3,12.8,0.6,25.7,0.9,38.5c2.5,0.2,5,0.4,7.5,0.6c0,1.4,0.1,2.9,0.1,4.3c-6.5,0.1-13,0.3-19.5,0.5
		c0-1.4-0.1-2.9-0.1-4.3c1.9-0.3,3.9-0.6,5.8-0.9C838.6,319.7,838.2,305.4,837.8,291L837.8,291z"/>
	<path d="M898.2,332c-4.4-4.9-6.6-11.6-6.5-20c0-5.6,1.2-10.4,3.7-14.6c2.4-4.1,5.7-7.3,10-9.5c4.2-2.2,9-3.2,14.3-3.1
		c2.2,0.1,4.4,0.2,6.4,0.6c2.1,0.3,4.5,0.7,7.3,1.2c2.1,0.4,3.3,0.6,3.5,0.6c-0.4,4.9-0.9,9.9-1.3,14.8c-2.3-0.1-4.6-0.1-6.9-0.2
		c-0.7-3.4-1.4-6.9-2.1-10.4c-0.5-0.5-1.5-1-2.8-1.4c-1.3-0.4-3.1-0.6-5.2-0.6c-4.3-0.1-7.8,1.7-10.4,5.5c-2.7,3.7-4,9.2-4.1,16.3
		c-0.1,6.9,1.1,12.6,3.4,17c2.3,4.4,5.8,6.6,10.4,6.7c2.2,0.1,3.9-0.1,5.1-0.5c1.2-0.4,2.2-0.9,3.1-1.7c1.2-2.4,2.3-4.9,3.5-7.3
		c2.1,0.2,4.1,0.5,6.2,0.8c-0.6,3.7-1.2,7.4-1.8,11.1c-1,0.1-2,0.2-3.1,0.4c-1,0.2-1.6,0.4-1.9,0.4c-2,0.5-3.8,0.8-5.5,1.1
		c-1.7,0.3-3.8,0.4-6.2,0.3C908.9,339.5,902.5,337,898.2,332L898.2,332z"/>
	<path d="M948.3,291.7c-1.8-0.4-3.7-0.8-5.6-1.1c0-1.5,0.1-3,0.2-4.5c7.7,0.3,15.4,0.6,23.1,1c-0.1,1.5-0.2,3-0.2,4.5
		c-2.1,0.2-4.3,0.4-6.4,0.6c-0.3,6-0.6,12-0.8,18c7.6,0.4,15.2,0.8,22.7,1.2c0.4-6,0.7-12,1.1-18c-1.9-0.4-3.8-0.9-5.8-1.3
		c0.1-1.5,0.2-3,0.2-4.5c7.6,0.4,15.2,0.9,22.7,1.4c-0.1,1.5-0.2,3-0.3,4.5c-1.9,0.2-3.9,0.4-5.8,0.5c-1,14.3-1.9,28.6-2.9,43
		c1.8,0.4,3.7,0.7,5.5,1.1c-0.1,1.4-0.2,2.9-0.3,4.3c-7.4-0.5-14.7-1-22.1-1.4c0.1-1.4,0.2-2.9,0.2-4.3c1.9-0.1,3.8-0.3,5.8-0.4
		c0.4-6.5,0.8-13,1.2-19.5c-7.5-0.5-15.1-0.9-22.7-1.2c-0.3,6.5-0.6,13-0.9,19.5c2,0.3,4.1,0.7,6.2,1c-0.1,1.4-0.1,2.9-0.2,4.3
		c-7.5-0.4-15-0.7-22.5-1c0-1.4,0.1-2.9,0.2-4.3c1.9-0.2,3.8-0.3,5.6-0.5C947.2,320.3,947.8,306,948.3,291.7L948.3,291.7z"/>
	<path d="M1041.5,292.3c3.9,0.4,7.7,0.8,11.6,1.2c4.2,16.8,8.1,33.5,11.9,50.3c1.4,0.4,2.8,0.8,4.2,1.2c-0.2,1.4-0.3,2.9-0.5,4.3
		c-7.2-0.8-14.4-1.6-21.6-2.4c0.2-1.4,0.3-2.9,0.4-4.3c1.9-0.1,3.7-0.1,5.6-0.1c-0.6-3.2-1.2-6.4-1.9-9.6
		c-6.4-0.7-12.8-1.3-19.1-1.9c-1.2,3-2.5,6.1-3.7,9.1c2,0.4,3.9,0.8,5.9,1.2c-0.1,1.4-0.3,2.9-0.4,4.3c-6.2-0.6-12.5-1.1-18.7-1.7
		c0.1-1.4,0.2-2.9,0.3-4.3c1.5-0.1,3-0.2,4.5-0.4C1026.9,323.6,1034.1,307.9,1041.5,292.3L1041.5,292.3z M1045.5,304.9
		c-0.3-1.9-0.5-3.8-0.8-5.7c-0.7,1.8-1.3,3.7-2,5.5c-3,7.1-5.9,14.2-8.8,21.4c5.4,0.5,10.9,1,16.3,1.6
		C1048.7,320.1,1047.1,312.5,1045.5,304.9L1045.5,304.9z"/>
	<path d="M1082.2,302.4c-1.9-0.5-3.9-1.1-5.8-1.6c0.2-1.5,0.3-3,0.5-4.4c5.7,0.7,11.4,1.4,17.1,2.1c6.1,11.7,12.1,23.4,17.9,35.1
		c1,2.9,2,5.8,2.9,8.7c1.7-11.6,3.4-23.2,5.1-34.8c-2.1-0.6-4.2-1.2-6.3-1.9c0.2-1.5,0.4-3,0.6-4.4c6.2,0.9,12.5,1.8,18.7,2.8
		c-0.2,1.5-0.5,2.9-0.7,4.4c-2,0-3.9,0-5.9,0.1c-2.4,15.9-4.7,31.7-7.1,47.6c-2.9-0.4-5.9-0.9-8.8-1.3c-5.9-12.3-12-24.6-18.3-36.9
		c-1.3-3.4-2.7-6.7-4-10.1c-1.6,12.7-3.2,25.5-4.8,38.2c2.4,0.5,4.9,1.1,7.3,1.7c-0.2,1.4-0.4,2.9-0.6,4.3
		c-6.4-0.8-12.9-1.6-19.3-2.4c0.2-1.4,0.3-2.9,0.5-4.3c2,0,3.9,0,5.9,0C1078.7,331,1080.5,316.7,1082.2,302.4L1082.2,302.4z"/>
	<path d="M1142.5,310.9c-1.8-0.6-3.7-1.2-5.5-1.8c0.2-1.5,0.5-2.9,0.7-4.4c3.7,0.6,7.3,1.2,11,1.8c1.7,0.3,3.9,0.5,6.7,0.8
		c0.7,0.1,1.7,0.2,3,0.4c1.3,0.2,2.5,0.4,3.6,0.5c9.2,1.6,15.7,5,19.5,10.2c3.8,5.2,4.8,11.8,3.3,19.7c-1.1,5.6-3.1,10.3-6.1,14.2
		c-3,3.9-6.8,6.7-11.3,8.4c-4.5,1.7-9.5,2.1-14.9,1.1c-1.4-0.2-3.6-0.7-6.6-1.4c-2.8-0.7-4.7-1.1-5.7-1.2c-3.7-0.6-7.4-1.2-11.1-1.8
		c0.2-1.4,0.4-2.9,0.7-4.3c2,0.1,3.9,0.1,5.9,0.2C1137.9,339.3,1140.2,325.1,1142.5,310.9L1142.5,310.9z M1153,357.2
		c4.9,0.7,9-0.5,12.4-3.7c3.4-3.2,5.8-8.5,7.2-15.9c1.3-7,0.9-12.7-1.2-17.1c-2.1-4.4-6.1-7-12-8.1c-1.2-0.2-2.4-0.3-3.6-0.4
		c-1.2-0.1-1.9-0.1-2.4-0.1c-2.4,14.5-4.8,29-7.2,43.5C1147.8,356.1,1150.1,356.7,1153,357.2L1153,357.2z"/>
	<path d="M1217,324.6c-1.8-0.7-3.6-1.4-5.4-2.1c0.3-1.5,0.6-2.9,0.9-4.4c3.6,0.7,7.3,1.5,10.9,2.3c1.6,0.4,3.9,0.7,6.7,1.1
		c0.7,0.1,1.7,0.3,3,0.5c1.3,0.2,2.5,0.5,3.6,0.7c9.2,2,15.5,5.7,19,11.1c3.5,5.4,4.3,12,2.4,19.9c-1.3,5.5-3.6,10.1-6.8,13.9
		c-3.2,3.8-7.1,6.4-11.7,7.9c-4.6,1.5-9.6,1.6-14.9,0.5c-1.4-0.3-3.6-0.9-6.5-1.7c-2.8-0.8-4.6-1.3-5.7-1.5c-3.7-0.8-7.3-1.5-11-2.3
		c0.3-1.4,0.6-2.8,0.9-4.2c2,0.1,3.9,0.3,5.9,0.5C1211.2,352.7,1214.1,338.6,1217,324.6L1217,324.6z M1225.5,371.3
		c4.8,1,9-0.1,12.6-3.1s6.2-8.2,7.9-15.6c1.6-7,1.5-12.7-0.4-17.1c-1.9-4.4-5.8-7.3-11.6-8.6c-1.2-0.3-2.4-0.5-3.6-0.6
		c-1.2-0.1-1.9-0.2-2.4-0.2c-3.1,14.4-6.2,28.7-9.2,43.1C1220.3,370,1222.5,370.7,1225.5,371.3L1225.5,371.3z"/>
	<path d="M1274.5,337.6c-2-0.8-4.1-1.6-6.1-2.4c0.3-1.5,0.7-2.9,1.1-4.3c7.9,1.9,15.8,3.9,23.8,5.9c-0.4,1.4-0.7,2.9-1.1,4.3
		c-2.2-0.2-4.5-0.5-6.7-0.8c-3.5,13.9-7,27.8-10.5,41.8c2.1,0.8,4.1,1.6,6.1,2.4c-0.3,1.4-0.7,2.7-1.1,4.1c-7.7-2-15.3-3.9-23-5.7
		c0.3-1.4,0.7-2.8,1-4.2c2.1,0.3,4.2,0.5,6.3,0.8C1267.7,365.5,1271.1,351.5,1274.5,337.6L1274.5,337.6z"/>
	<path d="M1304,345.1c-1.9-0.8-3.7-1.6-5.6-2.4c0.4-1.4,0.8-2.9,1.1-4.3c5.6,1.5,11.2,3,16.8,4.5c4.5,12.4,8.8,24.9,13.1,37.3
		c0.6,3,1.2,6,1.8,9c3.3-11.3,6.5-22.5,9.8-33.8c-2-0.9-4-1.8-6.1-2.7c0.4-1.4,0.8-2.9,1.2-4.3c6.1,1.7,12.2,3.5,18.2,5.3
		c-0.4,1.4-0.8,2.9-1.3,4.3c-2-0.3-3.9-0.5-5.9-0.8c-4.5,15.4-9.1,30.8-13.6,46.1c-2.9-0.8-5.7-1.7-8.6-2.5
		c-4.2-13-8.7-26.1-13.2-39.1c-0.9-3.5-1.8-7-2.6-10.6c-3.3,12.4-6.7,24.8-10,37.2c2.3,0.9,4.7,1.8,7.1,2.7
		c-0.4,1.4-0.8,2.8-1.1,4.2c-6.3-1.7-12.6-3.4-19-5.1c0.4-1.4,0.7-2.8,1.1-4.2c1.9,0.3,3.9,0.5,5.9,0.8
		C1296.6,372.9,1300.3,359,1304,345.1L1304,345.1z"/>
	<path d="M1363,361.9c-1.8-0.9-3.7-1.8-5.5-2.6c0.4-1.4,0.9-2.9,1.3-4.3c5.6,1.7,11.1,3.4,16.7,5.1c4.1,12.6,8,25.2,11.7,37.8
		c0.5,3,1,6.1,1.4,9.1c3.7-11.1,7.4-22.3,11.1-33.4c-2-1-4-2-6-2.9c0.5-1.4,0.9-2.8,1.4-4.2c6,2,12.1,4,18.1,6
		c-0.5,1.4-1,2.8-1.4,4.2c-2-0.3-3.9-0.7-5.9-1c-5.1,15.2-10.2,30.4-15.3,45.6c-2.8-1-5.7-1.9-8.5-2.8c-3.8-13.2-7.7-26.4-11.8-39.6
		c-0.7-3.5-1.5-7.1-2.3-10.7c-3.8,12.3-7.6,24.5-11.4,36.8c2.3,1,4.7,2,7,2.9c-0.4,1.4-0.9,2.8-1.3,4.1c-6.3-2-12.5-3.9-18.8-5.8
		c0.4-1.4,0.8-2.8,1.2-4.1c1.9,0.3,3.9,0.7,5.8,1C1354.6,389.4,1358.8,375.6,1363,361.9L1363,361.9z"/>
	<path d="M1421.4,380.9c-1.8-1-3.7-1.9-5.5-2.9c0.5-1.4,1-2.8,1.4-4.2c12.9,4.4,25.8,9,38.7,13.8c-1.1,3.9-2.2,7.8-3.3,11.7
		c-1.7-0.6-3.3-1.2-5-1.9c0-2.5,0.1-5,0.1-7.6c-5.1-2.1-10.2-4.2-15.4-6.2c-2.2,6.1-4.3,12.2-6.5,18.3c3.3,1.1,6.7,2.2,10,3.4
		c1.1-1.7,2.1-3.4,3.2-5.1c1.5,0.5,3.1,1.1,4.6,1.7c-2,5.5-4,10.9-6,16.4c-1.5-0.5-3-1.1-4.5-1.6c0.3-2.1,0.7-4.2,1-6.2
		c-3.3-1.3-6.6-2.5-9.8-3.8c-2.3,6.4-4.5,12.8-6.8,19.1c5.8,1.7,11.6,3.5,17.3,5.3c2.4-2.4,4.8-4.8,7.3-7.1c1.6,1.1,3.2,2.3,4.8,3.4
		c-2.2,3.9-4.3,7.8-6.4,11.7c-13.4-5-26.8-9.8-40.3-14.4c0.5-1.4,0.9-2.7,1.4-4.1c1.9,0.4,3.9,0.8,5.8,1.2
		C1412,408.1,1416.7,394.5,1421.4,380.9L1421.4,380.9z"/>
	<path d="M1447.5,437c1.9,0.5,3.9,1,5.8,1.4c5.1-13.4,10.2-26.8,15.3-40.2c-1.7-1-3.4-2-5-3c0.5-1.4,1-2.7,1.6-4.1
		c3.5,1.3,7,2.6,10.5,4c0.9,0.4,1.9,0.7,3.1,1.1s2,0.7,2.6,0.8c2.6,0.8,4.7,1.5,6.3,2.1c4.9,1.9,8.7,4,11.3,6.1
		c2.6,2.1,4.2,4.4,4.7,6.9c0.6,2.5,0.2,5.2-1.1,8.4c-1.3,3.1-3.3,5.5-6.1,7.5c-2.8,1.9-6.1,2.7-9.7,2.4c1.6,1.5,2.7,3.6,3.3,6.1
		c0.6,2.6,1.1,5.8,1.4,9.7c0.3,2.6,0.5,4.6,0.8,5.8c0.2,1.2,0.6,2,1.2,2.4c0.7,0.5,1.3,1.1,2,1.6c-0.5,1.3-1.1,2.6-1.6,3.9
		c-3.9-1.6-7.8-3.2-11.8-4.8c-0.7-0.3-1.2-1.3-1.4-3.1c-0.2-1.8-0.4-4.5-0.4-8.1c-0.1-4.3-0.3-7.6-0.6-10.1c-0.3-2.5-1-4.2-2.1-5.2
		c-2.4-1-4.8-1.9-7.3-2.9c-2.2,5.6-4.3,11.2-6.5,16.8c2.1,1.1,4.1,2.1,6.2,3.2c-0.5,1.3-1.1,2.7-1.6,4c-7.4-2.9-14.8-5.8-22.2-8.5
		C1446.5,439.6,1447,438.3,1447.5,437L1447.5,437z M1485.6,423.8c2.2-1.2,4.1-3.7,5.6-7.3c1.3-3.2,1.5-6,0.6-8.1s-3.2-4-6.8-5.4
		c-1.3-0.5-2.5-0.9-3.5-1.2c-1-0.2-1.6-0.4-1.9-0.5c-2.6,6.7-5.2,13.4-7.8,20.1c0.5,0.3,1.9,0.9,4.1,1.7c0.8,0.3,1.6,0.6,2.4,1
		C1480.9,425.1,1483.4,425,1485.6,423.8L1485.6,423.8z"/>
</g>
</svg>
