<?xml version="1.0" encoding="utf-8"?>
<!-- Generator: Adobe Illustrator 27.5.0, SVG Export Plug-In . SVG Version: 6.00 Build 0)  -->
<svg version="1.1" id="Layer_1" xmlns="http://www.w3.org/2000/svg" xmlns:xlink="http://www.w3.org/1999/xlink" x="0px" y="0px"
	 viewBox="0 0 1783.3 460.5" style="enable-background:new 0 0 1783.3 460.5;" xml:space="preserve">
<g>
	<path d="M38.3,189.7c-10,2.3-20,4.8-30,7.2c-2.8-6.7-5.5-13.4-8.3-20.1c19.1-7.9,38.3-15.6,57.6-22.9c5.4-2.1,13.6-5.4,24.7-10
		c14.5-6.4,27.9-11.6,40-15.9c26.8-9.4,49.1-13.4,66.5-12.7c17.4,0.7,31.1,5.6,40.8,14.2c9.8,8.7,17,21.3,21.8,37.6
		c8.3,28.3,5,53.1-9.3,74.7c-14.3,21.6-37.8,37.7-71,49.4c-13.1,4.6-22.6,7.8-28.6,9.2c8,21.6,15.9,43.3,23.9,64.9
		c15.8-4.6,31.7-9,47.6-13.2c2.3,6.6,4.5,13.3,6.8,19.9c-41.2,14.1-82.1,29.5-122.6,46.3c-2.7-6.5-5.4-13-8.1-19.5
		c8.5-4.8,17.1-9.5,25.7-14.2C90,319.8,64.2,254.8,38.3,189.7L38.3,189.7z M163.3,271c16.1-5.7,27.4-15.2,33.8-28.8
		c6.4-13.6,5.9-32.4-1.9-56.5c-6.1-18.7-15.1-30.9-27.2-36.3c-12.1-5.5-27.9-4.9-47,1.8c-7.2,2.5-14.4,5.6-21.7,9.3
		c-3.4,1.7-5.9,2.9-7.4,3.4c14.2,38.5,28.4,77.1,42.6,115.6C140.4,278.6,150,275.7,163.3,271L163.3,271z"/>
	<path d="M345.1,63.3c20.1-4.8,40.4-9.4,60.6-13.7c47,71,91.1,143.2,132,216.6c7.1,0,14.3,0,21.4,0c1.1,6.9,2.2,13.9,3.3,20.8
		c-34.9,5.6-69.7,12.1-104.3,19.5c-1.5-6.9-2.9-13.7-4.4-20.6c8.6-3,17.3-6,26-9c-7.6-14-15.4-27.9-23.2-41.8
		c-31.5,6.5-62.9,13.8-94.1,21.7c-0.9,16-1.7,32.1-2.5,48.1c9.8-1.5,19.6-2.9,29.4-4.2c1.7,6.8,3.4,13.6,5,20.5
		c-29.8,7.4-59.4,15.4-89,24.1c-2.1-6.7-4.2-13.4-6.3-20.1c6.7-3.2,13.4-6.4,20.1-9.5C324.8,231.8,333.3,147.6,345.1,63.3
		L345.1,63.3z M385.6,114.8c-4.3-8.4-8.7-16.7-13.1-25.1c-0.4,9.6-0.8,19.2-1.1,28.7c-3.2,37.7-5.9,75.3-8,112.8
		c26.9-6.7,53.8-13,80.8-18.7C425.2,179.7,405.7,147.1,385.6,114.8L385.6,114.8z"/>
	<path d="M568.4,264.7c9.3-2.6,18.5-5.2,27.9-7.7c-9.8-69.3-19.7-138.5-29.5-207.8c-10.1-0.2-20.3-0.4-30.4-0.5
		c-1.1-7-2.2-14.1-3.3-21.2c19.3-3,38.7-5.8,58.1-8.3c5.1-0.7,10.7-1.5,16.8-2.5c6.1-1,10.8-1.8,14-2.4c13.8-2.5,25.3-4.2,34.4-5.2
		c27.6-2.8,50-2.1,67,1.6c17,3.7,29.5,10.5,37.5,20.1c8,9.6,12.4,22.6,13.2,39c0.8,16.1-3.2,31.3-11.9,45.7
		c-8.7,14.3-21.6,24.6-38.8,31.1c10.4,3.2,19.8,9.8,28.3,19.8c8.4,10,17.4,23.2,26.9,39.6c6.7,11.1,11.8,19.1,15.3,24
		s6.8,7.6,10,8.2c4,1,8.1,2,12.1,3c0.2,6.9,0.5,13.8,0.7,20.7c-20.3,0.7-40.6,1.8-60.9,3.1c-3.8,0.2-8.1-3.3-12.8-10.6
		c-4.7-7.3-11.1-18.8-19.2-34.6c-9.6-18.5-17.9-32.8-24.8-43s-14-16.2-21-18.1c-12.9,1.3-25.8,2.6-38.7,4.1
		c3.4,29.1,6.7,58.1,10.1,87.2c11.2-0.1,22.4-0.1,33.6-0.1c0.7,7,1.4,14,2.1,21c-37.8,3.8-75.6,8.6-113.2,14.5
		C570.6,278.6,569.5,271.7,568.4,264.7L568.4,264.7z M704.2,120.5c7.4-10.2,10.4-24.9,8.9-44c-1.3-17-6.5-29.3-15.5-36.8
		c-9-7.5-23.8-10.3-44.3-8.2c-7.4,0.8-13.7,1.7-18.8,2.9c-5.1,1.2-8.5,1.8-10,2c4,34.9,8.1,69.7,12.1,104.6
		c3.1,0.1,10.5-0.5,22.1-1.8c4.3-0.5,8.6-0.9,12.9-1.3C686.1,136.5,696.9,130.8,704.2,120.5z"/>
	<path d="M798.3,1.8c40.9-1.6,81.8-2.2,122.6-1.6c-0.1,7.2-0.2,14.5-0.3,21.8c-11.3,1.4-22.7,2.8-34,4.4
		c19.9,52.4,38.5,105,55.7,157.9c3.3,11.9,6.6,23.8,9.8,35.7c3.4-11.8,6.8-23.7,10.3-35.5c19.1-51.7,39.4-103.1,61-154.3
		c-10.4-2.1-20.8-4.2-31.3-6.2c0.3-7.2,0.6-14.5,1-21.7c32.5,1.4,65,3.5,97.5,6.3c-0.6,7.2-1.2,14.4-1.9,21.7
		c-8.6,0.8-17.2,1.6-25.9,2.5c-36.4,76.5-69.7,153.8-99.9,231.8c-14.2-0.5-28.4-0.8-42.6-1c-28.9-79.4-61.3-158.2-97.1-236.1
		c-8-1.3-16.1-2.5-24.1-3.7C798.9,16.3,798.6,9.1,798.3,1.8L798.3,1.8z"/>
	<path d="M1192.4,18.2c20.5,2.7,40.9,5.6,61.3,8.8c18.5,83.1,33.8,166.3,45.8,249.5c6.7,2.5,13.3,5.1,20,7.7
		c-1.4,6.9-2.9,13.7-4.3,20.6c-34.7-7.3-69.5-13.6-104.4-19.1c1.1-6.9,2.2-13.9,3.2-20.8c9.2,0.2,18.3,0.5,27.5,0.9
		c-2.1-15.8-4.3-31.6-6.7-47.4c-31.7-5.1-63.4-9.6-95.2-13.3c-6.6,14.7-13,29.4-19.4,44.1c9.6,2.1,19.2,4.3,28.8,6.6
		c-0.9,7-1.7,13.9-2.6,20.9c-30.3-3.8-60.6-6.9-91-9.3c0.4-7,0.9-14,1.3-21c7.3-0.6,14.6-1.1,22-1.7
		C1113.5,168.2,1151.5,92.7,1192.4,18.2L1192.4,18.2z M1211.7,80.7c-1.1-9.4-2.1-18.7-3.2-28.1c-3.8,8.8-7.5,17.6-11.2,26.4
		c-16.4,34-32.3,68.2-47.7,102.5c27.3,3.3,54.6,7.1,81.8,11.4C1225.4,155.5,1218.9,118.1,1211.7,80.7L1211.7,80.7z"/>
	<path d="M1469.2,96.8c-18.7-4.2-37.5-8.2-56.3-12c-10.9,23.7-21.6,47.4-32.1,71.2c-10.6-2.4-21.2-4.7-31.8-6.9
		c9.1-32.6,18.3-65.3,27.6-97.9c85.3,18.2,169.8,41.2,253.2,69c-9.2,32.6-18.4,65.2-27.7,97.7c-9.8-3.3-19.5-6.5-29.3-9.6
		c3-25.8,5.8-51.7,8.4-77.6c-17.9-6.2-35.9-12.3-54-18c-19.6,68.3-39.1,136.5-58.7,204.8c16.1,5.8,32.1,11.9,48.1,18.1
		c-2.1,6.7-4.2,13.4-6.3,20.1c-48.1-15.1-96.6-28.3-145.4-39.8c1.6-6.8,3.2-13.7,4.8-20.5c15.4,2.4,30.8,5,46.2,7.8
		C1433.6,234.3,1451.4,165.5,1469.2,96.8L1469.2,96.8z"/>
	<path d="M1684.4,167.2c-10.2-5.4-20.6-10.7-30.9-15.9c2.4-6.9,4.8-13.7,7.2-20.5c41.2,14.4,82.1,30,122.6,46.8
		c-2.8,6.7-5.6,13.4-8.3,20.1c-11.6-3.2-23.2-6.2-34.9-9.2c-25.8,65.1-51.5,130.1-77.3,195.1c9.6,5.2,19.1,10.4,28.7,15.8
		c-2.6,6.4-5.3,12.8-7.9,19.1c-36-14.9-72.3-28.8-108.9-41.6c2.3-6.6,4.6-13.2,6.9-19.9c10.2,2.3,20.4,4.7,30.6,7.2
		C1636.2,298.6,1660.3,232.9,1684.4,167.2L1684.4,167.2z"/>
</g>
<g>
	<path d="M324.1,413.8c-1.9,0.4-3.8,0.9-5.7,1.3c-0.6-1.4-1.1-2.8-1.7-4.1c3.6-1.5,7.2-3,10.9-4.4c1-0.4,2.5-1.1,4.6-2
		c2.7-1.3,5.2-2.4,7.5-3.3c5-2,9.2-2.9,12.5-2.9c3.4,0,6,0.9,8.1,2.5s3.7,4.1,4.9,7.4c2.1,5.7,1.9,10.8-0.6,15.3
		c-2.5,4.6-7,8.1-13.5,10.7c-2.6,1-4.5,1.7-5.6,2c1.8,4.4,3.5,8.8,5.3,13.2c3.2-1,6.4-2,9.6-3c0.5,1.3,1,2.7,1.6,4
		c-8.4,3.3-16.7,6.6-25,10.1c-0.5-1.3-1.1-2.7-1.6-4c1.7-1,3.5-2,5.2-2.9C334.9,440.3,329.5,427.1,324.1,413.8L324.1,413.8z
		 M349.2,430.2c3.1-1.2,5.3-3.3,6.4-6.1c1.1-2.8,0.7-6.6-1.1-11.5c-1.5-3.8-3.4-6.2-5.8-7.2c-2.4-1-5.4-0.9-9,0.6
		c-1.3,0.5-2.7,1.2-4.1,1.9c-0.6,0.4-1.1,0.6-1.4,0.7c3.1,7.8,6.3,15.6,9.4,23.5C344.8,431.9,346.6,431.2,349.2,430.2L349.2,430.2z"
		/>
	<path d="M380.9,385.8c3.7-1.3,7.4-2.7,11.1-4c11,13.4,21.8,26.8,32.5,40.4c1.4-0.2,2.9-0.5,4.3-0.7c0.5,1.4,0.9,2.7,1.4,4.1
		c-6.9,2.3-13.9,4.7-20.8,7.1c-0.5-1.4-1-2.7-1.4-4.1c1.7-0.9,3.4-1.7,5-2.5c-1.9-2.6-3.9-5.2-5.8-7.9c-6.1,2.1-12.2,4.3-18.4,6.6
		c0.2,3.3,0.3,6.6,0.5,9.9c2-0.5,3.9-1,5.9-1.5c0.5,1.4,1,2.7,1.5,4.1c-6,2.2-11.9,4.4-17.8,6.6c-0.5-1.3-1.1-2.7-1.6-4
		c1.3-0.8,2.6-1.5,4-2.2C380.9,420.4,380.8,403.1,380.9,385.8L380.9,385.8z M390,395.5c-1.1-1.6-2.1-3.2-3.2-4.8
		c0.2,2,0.4,3.9,0.5,5.9c0.3,7.7,0.7,15.4,1.1,23.1c5.2-1.9,10.4-3.8,15.6-5.6C399.5,407.8,394.7,401.6,390,395.5L390,395.5z"/>
	<path d="M430.7,420.9c1.8-0.9,3.6-1.7,5.4-2.5c-4.5-13.6-9-27.3-13.4-40.9c-1.9,0.3-3.9,0.6-5.8,0.9c-0.5-1.4-0.9-2.8-1.4-4.2
		c3.5-1.2,7.1-2.3,10.6-3.5c0.9-0.3,2-0.7,3.1-1.1c1.1-0.4,2-0.7,2.5-1c2.5-1,4.6-1.8,6.2-2.3c5-1.6,9.2-2.4,12.6-2.3
		c3.3,0,6,0.8,8,2.4c2,1.6,3.4,4,4.4,7.2c1,3.2,0.9,6.4,0,9.6c-1,3.2-3,5.9-6,7.9c2.2,0.2,4.3,1.1,6.4,2.7c2.1,1.6,4.5,3.8,7.2,6.6
		c1.9,1.9,3.3,3.2,4.2,4c0.9,0.8,1.7,1.2,2.4,1.1c0.9,0,1.7,0,2.6,0c0.4,1.4,0.8,2.7,1.2,4.1c-4,1.2-8.1,2.4-12.1,3.6
		c-0.8,0.2-1.8-0.3-3.1-1.5c-1.3-1.2-3.1-3.3-5.4-6.1c-2.7-3.3-5-5.8-6.8-7.5s-3.4-2.7-4.9-2.8c-2.5,0.8-4.9,1.6-7.4,2.4
		c1.8,5.7,3.7,11.4,5.5,17.1c2.2-0.5,4.5-0.9,6.8-1.4c0.4,1.4,0.9,2.8,1.3,4.1c-7.5,2.4-15,4.8-22.5,7.3
		C431.6,423.7,431.1,422.3,430.7,420.9L430.7,420.9z M451.9,386.7c1-2.4,0.9-5.4-0.3-9.2c-1-3.4-2.6-5.6-4.6-6.7
		c-2-1.1-4.9-1.1-8.7,0.1c-1.4,0.4-2.5,0.9-3.4,1.3c-0.9,0.4-1.5,0.7-1.8,0.8c2.2,6.9,4.4,13.7,6.6,20.6c0.6-0.1,2-0.5,4.2-1.2
		c0.8-0.3,1.6-0.5,2.5-0.8C449,390.7,450.9,389.1,451.9,386.7L451.9,386.7z"/>
	<path d="M485.4,352.5c3.8-1,7.6-2.1,11.4-3.1c10,14.1,19.7,28.4,29.3,42.7c1.5-0.1,2.9-0.2,4.3-0.4c0.3,1.4,0.7,2.8,1.1,4.2
		c-7,1.8-14.1,3.6-21.1,5.5c-0.4-1.4-0.8-2.8-1.1-4.2c1.7-0.7,3.5-1.4,5.2-2.1c-1.7-2.8-3.5-5.5-5.2-8.3c-6.2,1.7-12.5,3.4-18.7,5.1
		c-0.1,3.3-0.2,6.6-0.2,9.9c2-0.3,4-0.7,6-1c0.4,1.4,0.8,2.8,1.2,4.2c-6.1,1.7-12.1,3.4-18.2,5.2c-0.4-1.4-0.9-2.8-1.3-4.1
		c1.4-0.6,2.7-1.3,4.1-2C483,386.9,484.1,369.7,485.4,352.5L485.4,352.5z M493.8,362.8c-0.9-1.7-1.9-3.4-2.8-5c0,2,0.1,3.9,0.1,5.9
		c-0.2,7.7-0.4,15.4-0.5,23.1c5.3-1.5,10.6-3,15.9-4.4C502.3,375.8,498,369.3,493.8,362.8L493.8,362.8z"/>
	<path d="M568.1,384.2c-1.6-1.5-3.8-4-6.8-7.5c-2.6-3-4.7-5.3-6.4-7.1c-1.7-1.8-3.3-3.2-4.7-4.3c-1.6,2.9-3.2,5.8-4.8,8.7
		c1,4.1,2,8.3,3,12.5c2.1-0.2,4.3-0.5,6.4-0.7c0.3,1.4,0.7,2.8,1,4.1c-7.5,1.8-14.9,3.6-22.3,5.5c-0.3-1.4-0.7-2.8-1.1-4.2
		c1.8-0.7,3.7-1.4,5.5-2.1c-3.5-13.9-6.9-27.9-10.4-41.8c-2,0.2-4,0.4-6,0.5c-0.4-1.4-0.7-2.9-1.1-4.3c7.5-1.9,15-3.7,22.4-5.5
		c0.3,1.5,0.7,2.9,1,4.3c-1.8,0.8-3.7,1.5-5.5,2.3c1.8,7.6,3.7,15.2,5.5,22.8c4.6-9.1,9.3-18.3,14.1-27.4c-2.1,0.2-4.2,0.3-6.3,0.5
		c-0.3-1.5-0.7-2.9-1-4.4c6.7-1.5,13.5-3,20.2-4.5c0.3,1.5,0.6,2.9,0.9,4.4c-2,0.8-4,1.5-6,2.3c-3.7,6.2-7.3,12.4-10.9,18.5
		c2.1,1.1,4.4,2.8,6.9,5.1s5.7,5.4,9.3,9.2c2.7,2.8,4.7,4.8,6.1,6.1c1.3,1.3,2.3,2,2.9,2.1c1.2,0,2.4,0,3.6,0
		c0.3,1.4,0.6,2.8,0.9,4.1c-4.3,0.9-8.6,1.9-12.9,2.8C570.8,386.4,569.7,385.7,568.1,384.2L568.1,384.2z"/>
	<path d="M594.7,376.3c-4.3-2.8-7.3-8.1-8.9-15.7c-1.8-8.5-3.5-17-5.3-25.4c-1.7,0-3.4,0.1-5.1,0.1c-0.3-1.5-0.6-2.9-0.9-4.4
		c7.5-1.6,15.1-3.1,22.7-4.6c0.3,1.5,0.6,2.9,0.9,4.4c-2.1,0.8-4.1,1.5-6.2,2.2c1.8,8.8,3.5,17.5,5.3,26.3
		c2.3,11.2,7.5,16,15.7,14.4c4-0.8,6.7-2.8,8.1-6c1.4-3.3,1.6-7.5,0.7-12.8c-1.6-8.9-3.3-17.8-4.9-26.7c-2.2,0.1-4.4,0.1-6.6,0.2
		c-0.3-1.5-0.5-2.9-0.8-4.4c6.3-1.2,12.5-2.3,18.8-3.4c0.3,1.5,0.5,2.9,0.8,4.4c-1.7,0.6-3.3,1.2-4.9,1.8c1.6,8.7,3.1,17.5,4.7,26.2
		c1.3,7.4,0.4,13.2-2.6,17.4c-3,4.2-7.6,6.9-13.8,8.1C604.9,379.8,599.1,379.2,594.7,376.3L594.7,376.3z"/>
	<path d="M639.6,324c-2.2,0-4.4,0.1-6.5,0.2c-0.2-1.5-0.5-2.9-0.8-4.4c8-1.4,16.1-2.7,24.1-3.9c0.2,1.5,0.5,2.9,0.7,4.4
		c-2.2,0.6-4.3,1.3-6.5,2c2.3,14.2,4.5,28.4,6.8,42.5c2.2-0.1,4.4-0.2,6.5-0.2c0.2,1.4,0.4,2.8,0.7,4.2c-7.8,1.2-15.5,2.5-23.3,3.8
		c-0.2-1.4-0.5-2.8-0.7-4.3c2-0.6,4-1.2,6.1-1.8C644.4,352.3,642,338.2,639.6,324L639.6,324z"/>
	<path d="M669.7,319.3c-1.9,0-3.8-0.1-5.7-0.1c-0.2-1.5-0.4-2.9-0.7-4.4c7.7-1.1,15.3-2.2,23-3.3c0.2,1.5,0.4,3,0.6,4.4
		c-2.1,0.6-4.1,1.2-6.2,1.8c0.8,6,1.7,11.9,2.5,17.9c7.5-1,15.1-2,22.7-3c-0.7-6-1.5-12-2.2-17.9c-2-0.1-4-0.1-5.9-0.2
		c-0.2-1.5-0.4-3-0.6-4.4c7.6-1,15.2-1.9,22.7-2.7c0.2,1.5,0.3,3,0.5,4.4c-1.9,0.5-3.8,1-5.6,1.6c1.6,14.3,3.3,28.5,4.9,42.8
		c1.9,0,3.8,0,5.7,0.1c0.2,1.4,0.3,2.9,0.5,4.3c-7.3,0.8-14.7,1.7-22,2.6c-0.2-1.4-0.4-2.9-0.5-4.3c1.9-0.5,3.8-1,5.6-1.4
		c-0.8-6.5-1.6-12.9-2.4-19.4c-7.5,0.9-15,1.9-22.6,2.9c0.9,6.4,1.8,12.9,2.7,19.3c2.1,0,4.2-0.1,6.2-0.1c0.2,1.4,0.4,2.9,0.6,4.3
		c-7.4,1-14.9,2-22.3,3.2c-0.2-1.4-0.4-2.9-0.6-4.3c1.8-0.5,3.6-1,5.5-1.5C673.8,347.8,671.7,333.6,669.7,319.3L669.7,319.3z"/>
	<path d="M733.6,311.4c-2.2-0.1-4.3-0.2-6.5-0.3c-0.2-1.5-0.3-3-0.5-4.4c8.1-0.9,16.2-1.6,24.3-2.4c0.1,1.5,0.3,3,0.4,4.5
		c-2.2,0.5-4.4,1-6.6,1.5c1.3,14.3,2.7,28.6,4,42.9c2.2,0.1,4.4,0.1,6.5,0.2c0.1,1.4,0.2,2.8,0.4,4.2c-7.8,0.7-15.6,1.5-23.4,2.3
		c-0.2-1.4-0.3-2.9-0.5-4.3c2-0.5,4.1-0.9,6.2-1.4C736.5,340,735,325.7,733.6,311.4L733.6,311.4z"/>
	<path d="M794.1,305.9c-3.6,0.3-7.2,0.7-10.8,1c-0.6,5.3-1.3,10.6-1.9,15.9c-2.1,0.1-4.2,0.3-6.3,0.5c-0.1-7-0.2-13.9-0.2-20.9
		c16.3-1.2,32.7-2.1,49.1-2.8c0.6,6.9,1.2,13.8,1.7,20.8c-2,0.1-4,0.2-5.9,0.2c-1.2-5.2-2.4-10.4-3.6-15.5c-3.6,0-7.1,0.1-10.7,0.2
		c0.8,14.5,1.5,29.1,2.3,43.6c3.5,0.1,6.9,0.1,10.3,0.2c0.1,1.4,0.1,2.9,0.2,4.3c-10.2,0.5-20.4,1-30.6,1.7
		c-0.1-1.4-0.2-2.9-0.3-4.3c3.1-0.5,6.2-0.9,9.4-1.3C795.8,335,794.9,320.5,794.1,305.9L794.1,305.9z"/>
	<path d="M836.7,304.6c-2.2-0.2-4.3-0.5-6.5-0.7c0-1.5-0.1-3-0.2-4.5c8.1-0.3,16.2-0.5,24.4-0.7c0,1.5,0.1,3,0.1,4.5
		c-2.2,0.4-4.4,0.7-6.7,1.1c0.3,14.4,0.7,28.7,1,43c2.2,0.2,4.3,0.4,6.5,0.6c0,1.4,0,2.8,0.1,4.2c-7.8,0.1-15.7,0.4-23.5,0.6
		c0-1.4-0.1-2.9-0.2-4.3c2.1-0.3,4.2-0.6,6.2-0.9C837.6,333.3,837.1,319,836.7,304.6L836.7,304.6z"/>
	<path d="M867,304c-2-0.3-4-0.6-6-0.9c0-1.5,0-3-0.1-4.5c5.8-0.1,11.5-0.1,17.3-0.1c7.6,10.8,15,21.6,22.3,32.5
		c1.4,2.8,2.7,5.5,4,8.3c0.2-11.7,0.4-23.5,0.5-35.2c-2.2-0.4-4.3-0.7-6.5-1c0-1.5,0-3,0-4.5c6.3,0.1,12.6,0.2,18.9,0.3
		c0,1.5-0.1,3-0.1,4.5c-2,0.3-3.9,0.5-5.9,0.8c-0.3,16-0.6,32.1-1,48.1c-3-0.1-5.9-0.1-8.9-0.1c-7.5-11.5-15.1-22.9-22.9-34.2
		c-1.8-3.2-3.5-6.3-5.3-9.5c0.1,12.8,0.2,25.7,0.2,38.5c2.5,0.2,5,0.5,7.5,0.7c0,1.4,0,2.9,0,4.3c-6.5,0-13,0.1-19.5,0.1
		c0-1.4,0-2.9-0.1-4.3c1.9-0.3,3.9-0.5,5.8-0.8C867.3,332.7,867.1,318.4,867,304L867,304z"/>
	<path d="M939.8,299.3c3.9,0.1,7.8,0.3,11.7,0.5c5.1,16.5,10,33,14.7,49.6c1.4,0.3,2.8,0.6,4.2,1c-0.1,1.4-0.2,2.9-0.3,4.3
		c-7.2-0.4-14.4-0.8-21.6-1.2c0.1-1.4,0.1-2.9,0.2-4.3c1.8-0.1,3.7-0.3,5.6-0.5c-0.8-3.2-1.6-6.3-2.4-9.5
		c-6.4-0.3-12.8-0.6-19.2-0.8c-1.1,3.1-2.1,6.2-3.2,9.3c2,0.3,4,0.6,5.9,0.9c0,1.4-0.1,2.9-0.2,4.3c-6.2-0.2-12.5-0.4-18.7-0.6
		c0-1.4,0-2.9,0-4.3c1.5-0.2,3-0.4,4.4-0.6C927.1,331.4,933.4,315.4,939.8,299.3L939.8,299.3z M944.6,311.7
		c-0.4-1.9-0.8-3.8-1.1-5.7c-0.6,1.9-1.1,3.8-1.7,5.6c-2.5,7.3-5,14.5-7.5,21.8c5.5,0.2,10.9,0.4,16.4,0.7
		C948.7,326.7,946.6,319.2,944.6,311.7L944.6,311.7z"/>
	<path d="M1002.3,308.8c-2.7-0.5-5.4-1.1-8.1-1.6c0.1-1.5,0.2-3,0.3-4.5c7.9,0.6,15.8,1.3,23.7,2c2.1,10.5,4.1,21.1,6,31.7
		c0.4,2.9,0.8,5.7,1.2,8.6c0.9-2.7,1.7-5.5,2.6-8.2c4-10,8-19.9,12.1-29.9c7.8,0.8,15.6,1.7,23.4,2.7c-0.2,1.5-0.4,3-0.6,4.4
		c-2.8,0-5.6,0-8.3-0.1c0.3,14.5,0.6,28.9,0.8,43.4c1.9,0.5,3.9,1,5.8,1.5c-0.2,1.4-0.4,2.9-0.5,4.3c-7.8-1-15.5-1.9-23.3-2.8
		c0.2-1.4,0.3-2.9,0.5-4.3c2.2,0,4.4,0,6.5,0c0.1-10.6,0.2-21.1,0.3-31.7c0-4.4,0-8.8,0-13.2c-1.3,3.6-2.7,7.1-4,10.7
		c-4.9,11.7-9.8,23.4-14.6,35.1c-2.6-0.3-5.2-0.5-7.8-0.8c-2.5-11.8-5.1-23.6-7.8-35.4c-0.9-4.4-1.8-8.8-2.7-13.2
		c-0.8,4.3-1.5,8.7-2.2,13c-1.8,10.4-3.7,20.8-5.5,31.2c2.5,0.4,4.9,0.9,7.4,1.4c-0.1,1.4-0.2,2.9-0.4,4.3
		c-6.8-0.6-13.6-1.1-20.4-1.6c0.1-1.4,0.2-2.9,0.3-4.3c2.1-0.1,4.2-0.2,6.2-0.2C996.3,337.1,999.2,322.9,1002.3,308.8L1002.3,308.8z
		"/>
	<path d="M1076,316.7c-2-0.6-3.9-1.1-5.9-1.7c0.2-1.5,0.4-3,0.6-4.4c13.5,1.7,26.9,3.6,40.3,5.7c-0.3,4-0.6,8.1-0.9,12.1
		c-1.8-0.3-3.5-0.5-5.2-0.8c-0.5-2.5-0.9-5-1.4-7.4c-5.4-1-10.8-2-16.2-3c-0.9,6.4-1.8,12.8-2.7,19.2c3.5,0.4,6.9,0.8,10.4,1.3
		c0.7-1.9,1.4-3.8,2.1-5.7c1.6,0.2,3.2,0.5,4.8,0.7l-2.6,17.2c-1.6-0.2-3.2-0.5-4.7-0.7c-0.1-2.1-0.2-4.2-0.3-6.3
		c-3.4-0.6-6.8-1.1-10.3-1.7c-0.9,6.7-1.9,13.4-2.8,20.1c5.9,0.5,11.9,1.1,17.8,1.7c1.9-2.8,3.8-5.6,5.7-8.5
		c1.8,0.8,3.5,1.6,5.3,2.4c-1.3,4.2-2.7,8.5-4,12.7c-13.9-2.2-27.9-4.2-41.9-6c0.2-1.4,0.4-2.9,0.6-4.3c2,0,3.9,0,5.9,0
		C1072.2,345.1,1074.1,330.9,1076,316.7L1076,316.7z"/>
	<path d="M1155.5,328.8c-3.6-0.6-7.2-1.1-10.8-1.6c-1.9,5-3.8,10-5.7,14.9c-2.1-0.4-4.2-0.7-6.2-1.1c1.6-6.8,3.2-13.5,4.8-20.3
		c16.2,2.8,32.4,6,48.5,9.3c-1.1,6.9-2.2,13.7-3.4,20.5c-1.9-0.4-3.9-0.8-5.8-1.2c0.1-5.3,0.2-10.6,0.2-16c-3.5-0.8-7-1.7-10.5-2.5
		c-2.8,14.3-5.6,28.6-8.4,42.9c3.3,0.9,6.7,1.8,10,2.7c-0.3,1.4-0.6,2.8-0.9,4.2c-10.1-2-20.1-4-30.2-5.8c0.3-1.4,0.5-2.8,0.8-4.2
		c3.2,0.3,6.3,0.7,9.4,1C1150.1,357.4,1152.8,343.1,1155.5,328.8L1155.5,328.8z"/>
	<path d="M1196.3,337.7c-1.9-0.7-3.8-1.5-5.8-2.2c0.3-1.5,0.6-2.9,0.9-4.4c13.3,2.8,26.6,5.9,39.8,9.1c-0.6,4-1.3,8-1.9,12
		c-1.7-0.4-3.4-0.8-5.2-1.2c-0.3-2.5-0.5-5-0.8-7.5c-5.3-1.5-10.6-2.9-15.9-4.4c-1.4,6.3-2.8,12.6-4.3,18.9
		c3.4,0.7,6.8,1.4,10.3,2.1c0.8-1.8,1.7-3.6,2.5-5.5c1.6,0.4,3.2,0.7,4.7,1.1c-1.3,5.6-2.7,11.3-4,17c-1.6-0.4-3.1-0.7-4.7-1.1
		c0.1-2.1,0.2-4.2,0.2-6.3c-3.4-0.9-6.8-1.7-10.1-2.5c-1.5,6.6-3,13.2-4.5,19.8c5.9,1,11.8,2.1,17.7,3.2c2.1-2.6,4.2-5.3,6.4-8
		c1.7,0.9,3.4,1.9,5.1,2.8c-1.7,4.1-3.3,8.2-5,12.3c-13.8-3.4-27.6-6.5-41.4-9.5c0.3-1.4,0.6-2.8,0.9-4.2c2,0.2,3.9,0.4,5.9,0.5
		C1190.2,365.8,1193.3,351.8,1196.3,337.7L1196.3,337.7z"/>
	<path d="M1274.9,356.5c-3.6-0.9-7.1-1.7-10.7-2.5c-2.3,4.8-4.6,9.6-6.9,14.4c-2.1-0.5-4.1-1.1-6.2-1.6c2.2-6.6,4.3-13.2,6.5-19.8
		c16,4.2,31.9,8.6,47.8,13.4c-1.7,6.7-3.4,13.5-5.1,20.2c-1.9-0.6-3.8-1.1-5.8-1.7c0.5-5.3,1.1-10.6,1.6-15.9
		c-3.4-1.1-6.9-2.2-10.3-3.3c-4,14-8,28-12,42c3.3,1.2,6.5,2.4,9.8,3.6c-0.4,1.4-0.8,2.8-1.2,4.1c-9.9-2.9-19.8-5.7-29.8-8.4
		c0.4-1.4,0.8-2.8,1.1-4.2c3.1,0.6,6.2,1.2,9.4,1.8C1267.2,384.6,1271,370.5,1274.9,356.5L1274.9,356.5z"/>
	<path d="M1316,369.2c-2-0.9-4-1.9-6-2.8c0.4-1.4,0.9-2.9,1.3-4.3c7.9,2.4,15.7,4.8,23.5,7.4c-0.5,1.4-0.9,2.8-1.4,4.2
		c-2.2-0.4-4.5-0.8-6.7-1.2c-4.3,13.7-8.7,27.4-13,41c2,0.9,4,1.8,6,2.8c-0.4,1.4-0.9,2.7-1.3,4c-7.6-2.4-15.1-4.8-22.7-7.1
		c0.4-1.4,0.8-2.8,1.2-4.1c2.1,0.4,4.2,0.8,6.3,1.2C1307.6,396.6,1311.8,382.9,1316,369.2L1316,369.2z"/>
	<path d="M1345.2,378.5c-1.8-0.9-3.7-1.9-5.5-2.8c0.5-1.4,0.9-2.8,1.4-4.2c5.6,1.8,11.1,3.6,16.6,5.5c3.8,12.7,7.4,25.4,10.9,38.1
		c0.4,3,0.8,6.1,1.2,9.1c4-11,7.9-22.1,11.9-33.1c-2-1-3.9-2.1-5.9-3.1c0.5-1.4,1-2.8,1.5-4.2c6,2.1,12,4.3,18,6.5
		c-0.5,1.4-1,2.8-1.6,4.2c-2-0.4-3.9-0.8-5.9-1.2c-5.5,15.1-11,30.1-16.5,45.2c-2.8-1-5.7-2-8.5-3.1c-3.4-13.3-7.1-26.6-10.9-39.9
		c-0.7-3.6-1.3-7.1-2-10.7c-4.1,12.2-8.2,24.3-12.3,36.5c2.3,1,4.6,2.1,6.9,3.1c-0.5,1.4-0.9,2.7-1.4,4.1
		c-6.2-2.1-12.5-4.2-18.7-6.2c0.4-1.4,0.9-2.7,1.3-4.1c1.9,0.4,3.9,0.8,5.8,1.2C1336.2,405.7,1340.7,392.1,1345.2,378.5
		L1345.2,378.5z"/>
	<path d="M1416.7,398.1c3.7,1.4,7.4,2.9,11.1,4.3c-0.4,17.3-1.1,34.6-1.9,51.8c1.2,0.8,2.5,1.5,3.8,2.3c-0.6,1.3-1.1,2.7-1.7,4
		c-6.8-2.8-13.6-5.6-20.5-8.3c0.5-1.3,1.1-2.7,1.6-4c1.8,0.5,3.7,0.9,5.5,1.4c0.3-3.3,0.5-6.5,0.8-9.8c-6.1-2.4-12.1-4.8-18.2-7.1
		c-2,2.6-4.1,5.2-6.1,7.8c1.8,0.9,3.6,1.9,5.4,2.8c-0.5,1.3-1,2.7-1.6,4c-5.9-2.3-11.9-4.5-17.8-6.7c0.5-1.4,0.9-2.7,1.4-4.1
		c1.5,0.3,3,0.6,4.5,0.9C1394,424.2,1405.3,411.1,1416.7,398.1L1416.7,398.1z M1417.2,411.3c0.2-1.9,0.5-3.8,0.8-5.7
		c-1.1,1.6-2.3,3.2-3.4,4.8c-4.8,6-9.6,12.1-14.3,18.2c5.2,2,10.4,4,15.5,6.1C1416.3,426.9,1416.8,419.1,1417.2,411.3L1417.2,411.3z
		"/>
</g>
</svg>
