<?xml version="1.0" encoding="iso-8859-1"?>
<!-- Generator: Adobe Illustrator 26.5.3, SVG Export Plug-In . SVG Version: 6.00 Build 0)  -->
<svg version="1.1" id="Layer_1" xmlns="http://www.w3.org/2000/svg" xmlns:xlink="http://www.w3.org/1999/xlink" x="0px" y="0px"
	 viewBox="0 0 1920 1080" style="enable-background:new 0 0 1920 1080;" xml:space="preserve">
<g>
	<g>
		<path d="M352.243,490.921c-7.119,1.668-14.238,3.386-21.357,5.157c-1.974-4.775-3.948-9.549-5.921-14.324
			c13.626-5.633,27.309-11.077,41.044-16.332c3.821-1.461,9.674-3.865,17.593-7.151c10.356-4.535,19.866-8.286,28.497-11.297
			c19.096-6.656,34.966-9.567,47.392-9.049c12.43,0.524,22.119,3.957,29.053,10.136c6.941,6.185,12.087,15.142,15.53,26.807
			c5.937,20.154,3.563,37.839-6.596,53.195c-10.184,15.386-26.938,26.865-50.56,35.189c-9.353,3.301-16.13,5.519-20.371,6.547
			c5.674,15.405,11.348,30.81,17.023,46.215c11.281-3.267,22.579-6.395,33.892-9.382c1.617,4.731,3.235,9.462,4.852,14.194
			c-29.371,10.042-58.503,21.037-87.35,32.986c-1.913-4.619-3.827-9.239-5.74-13.858c6.076-3.419,12.176-6.795,18.301-10.13
			C389.098,583.523,370.67,537.222,352.243,490.921z M441.249,548.816c11.5-4.06,19.495-10.846,24.098-20.542
			c4.593-9.688,4.205-23.083-1.338-40.211c-4.311-13.317-10.742-21.974-19.392-25.872c-8.641-3.892-19.862-3.523-33.496,1.288
			c-5.09,1.797-10.24,4-15.445,6.605c-2.423,1.241-4.172,2.06-5.258,2.46c10.115,27.445,20.229,54.891,30.344,82.336
			C424.987,554.215,431.803,552.154,441.249,548.816z"/>
		<path d="M570.762,400.865c14.355-3.453,28.744-6.713,43.165-9.778c33.503,50.555,64.859,102.025,94.036,154.272
			c5.079-0.023,10.153-0.019,15.222,0.011c0.793,4.937,1.586,9.874,2.379,14.81c-24.857,3.992-49.635,8.624-74.311,13.896
			c-1.045-4.89-2.09-9.779-3.134-14.669c6.163-2.169,12.344-4.298,18.541-6.388c-5.433-9.961-10.936-19.896-16.51-29.805
			c-22.421,4.644-44.763,9.798-67.008,15.463c-0.656,11.432-1.237,22.857-1.745,34.275c6.988-1.055,13.976-2.059,20.963-3.011
			c1.198,4.854,2.397,9.709,3.595,14.563c-21.213,5.237-42.337,10.952-63.357,17.145c-1.495-4.772-2.992-9.544-4.489-14.315
			c4.76-2.272,9.535-4.521,14.323-6.744C556.273,520.861,562.379,460.908,570.762,400.865z M599.592,437.505
			c-3.094-5.962-6.207-11.916-9.339-17.863c-0.278,6.821-0.534,13.641-0.769,20.458c-2.299,26.818-4.201,53.609-5.707,80.365
			c19.124-4.803,38.318-9.233,57.571-13.29C627.828,483.794,613.909,460.567,599.592,437.505z"/>
		<path d="M729.825,544.319c6.599-1.873,13.216-3.701,19.848-5.484c-7.005-49.338-14.01-98.677-21.015-148.015
			c-7.214-0.154-14.437-0.261-21.671-0.318c-0.78-5.023-1.56-10.046-2.34-15.069c13.765-2.137,27.55-4.1,41.352-5.888
			c3.614-0.468,7.603-1.056,11.968-1.759c4.361-0.698,7.679-1.256,9.948-1.689c9.837-1.809,18.019-3.009,24.516-3.666
			c19.679-1.984,35.629-1.495,47.711,1.14c12.083,2.639,20.974,7.465,26.673,14.316c5.699,6.859,8.802,16.135,9.402,27.782
			c0.593,11.487-2.294,22.308-8.459,32.512c-6.175,10.213-15.385,17.544-27.674,22.16c7.401,2.277,14.136,6.989,20.135,14.118
			c5.996,7.13,12.419,16.516,19.171,28.176c4.796,7.926,8.407,13.636,10.905,17.106c2.497,3.474,4.863,5.412,7.121,5.818
			c2.873,0.714,5.742,1.437,8.607,2.168c0.176,4.914,0.353,9.827,0.529,14.74c-14.457,0.519-28.908,1.251-43.349,2.195
			c-2.72,0.178-5.742-2.33-9.113-7.521c-3.376-5.187-7.896-13.421-13.675-24.669c-6.81-13.168-12.749-23.367-17.682-30.625
			c-4.933-7.255-9.937-11.56-14.943-12.914c-9.205,0.902-18.404,1.886-27.596,2.953c2.402,20.694,4.804,41.389,7.206,62.083
			c7.976-0.087,15.945-0.109,23.905-0.067c0.497,4.975,0.994,9.95,1.492,14.926c-26.954,2.693-53.851,6.13-80.66,10.312
			C731.366,554.2,730.596,549.259,729.825,544.319z M826.568,441.616c5.239-7.296,7.384-17.739,6.314-31.367
			c-0.952-12.125-4.598-20.874-11.029-26.19c-6.422-5.308-16.979-7.331-31.555-5.83c-5.3,0.547-9.769,1.246-13.409,2.069
			c-3.64,0.827-6.024,1.312-7.157,1.444c2.882,24.833,5.765,49.666,8.647,74.499c2.203,0.085,7.446-0.363,15.744-1.244
			c3.067-0.325,6.134-0.64,9.202-0.947C813.608,453.024,821.319,448.92,826.568,441.616z"/>
		<path d="M893.563,357.077c29.105-1.156,58.232-1.546,87.353-1.171c-0.067,5.166-0.133,10.332-0.2,15.499
			c-8.08,0.979-16.145,2.018-24.194,3.116c14.181,37.307,27.399,74.798,39.651,112.436c2.357,8.476,4.672,16.957,6.944,25.443
			c2.415-8.434,4.867-16.861,7.356-25.283c13.593-36.818,28.084-73.456,43.469-109.881c-7.411-1.512-14.839-2.973-22.283-4.384
			c0.227-5.162,0.453-10.323,0.68-15.485c23.166,1.016,46.315,2.518,69.432,4.505c-0.443,5.148-0.885,10.295-1.328,15.443
			c-6.15,0.559-12.289,1.152-18.419,1.78c-25.935,54.467-49.66,109.535-71.157,165.069c-10.108-0.352-20.218-0.601-30.33-0.745
			c-20.611-56.55-43.68-112.668-69.19-168.193c-5.713-0.916-11.436-1.803-17.17-2.659
			C893.973,367.402,893.768,362.24,893.563,357.077z"/>
		<path d="M1174.284,368.701c14.572,1.899,29.124,3.991,43.653,6.278c13.164,59.183,24.04,118.456,32.635,177.686
			c4.758,1.795,9.503,3.614,14.237,5.456c-1.024,4.894-2.049,9.788-3.073,14.682c-24.693-5.168-49.486-9.696-74.355-13.583
			c0.772-4.94,1.545-9.88,2.317-14.82c6.516,0.175,13.037,0.394,19.564,0.656c-1.509-11.244-3.091-22.49-4.748-33.735
			c-22.557-3.671-45.177-6.831-67.843-9.481c-4.681,10.444-9.29,20.908-13.826,31.391c6.858,1.509,13.702,3.066,20.53,4.671
			c-0.617,4.962-1.234,9.924-1.851,14.885c-21.569-2.681-43.184-4.884-64.828-6.608c0.312-4.991,0.624-9.982,0.934-14.973
			c5.211-0.422,10.428-0.816,15.652-1.183C1118.08,475.608,1145.088,421.79,1174.284,368.701z M1188.026,413.215
			c-0.752-6.673-1.524-13.346-2.316-20.019c-2.692,6.272-5.362,12.55-8.011,18.834c-11.702,24.228-23.019,48.573-33.95,73.026
			c19.468,2.341,38.901,5.055,58.29,8.141C1197.789,466.53,1193.118,439.867,1188.026,413.215z"/>
		<path d="M1371.406,424.683c-13.337-3.02-26.696-5.87-40.073-8.55c-7.734,16.854-15.349,33.748-22.847,50.682
			c-7.553-1.701-15.116-3.345-22.687-4.934c6.479-23.248,13.026-46.48,19.644-69.694c60.753,12.936,120.953,29.319,180.308,49.149
			c-6.526,23.212-13.1,46.408-19.723,69.59c-6.95-2.338-13.912-4.627-20.886-6.866c2.11-18.403,4.1-36.831,5.968-55.284
			c-12.77-4.441-25.588-8.722-38.451-12.843c-13.939,48.625-27.878,97.25-41.816,145.875c11.466,4.154,22.882,8.449,34.245,12.883
			c-1.495,4.771-2.99,9.543-4.485,14.314c-34.239-10.73-68.773-20.18-103.533-28.351c1.144-4.867,2.288-9.735,3.432-14.602
			c10.969,1.722,21.934,3.571,32.894,5.546C1346.066,522.624,1358.736,473.653,1371.406,424.683z"/>
		<path d="M1524.676,474.833c-7.302-3.831-14.635-7.608-21.998-11.331c1.705-4.877,3.411-9.754,5.117-14.631
			c29.341,10.262,58.465,21.372,87.335,33.331c-1.977,4.773-3.954,9.547-5.932,14.32c-8.28-2.257-16.563-4.444-24.849-6.562
			c-18.354,46.33-36.708,92.66-55.062,138.99c6.831,3.692,13.633,7.437,20.404,11.234c-1.881,4.542-3.763,9.085-5.645,13.627
			c-25.642-10.621-51.509-20.489-77.568-29.603c1.651-4.72,3.301-9.439,4.952-14.159c7.268,1.659,14.533,3.376,21.796,5.151
			C1490.376,568.411,1507.526,521.622,1524.676,474.833z"/>
	</g>
</g>
<g>
	<g>
		<path d="M513.595,666.199c-1.371,0.328-2.741,0.658-4.112,0.992c-0.395-0.955-0.791-1.91-1.186-2.865
			c2.467-1.022,4.936-2.034,7.408-3.038c1.128-0.458,2.563-1.11,4.308-1.953c0.419-0.204,0.922-0.441,1.508-0.712
			c0.587-0.269,1.278-0.563,2.077-0.881c5.024-1.994,8.81-2.698,11.334-2.155c2.525,0.545,4.283,2.132,5.283,4.747
			c0.881,2.304,0.878,4.508,0.006,6.611c-0.873,2.105-2.422,3.784-4.65,5.05c3.236-1.302,6.062-1.585,8.464-0.863
			c2.402,0.722,4.083,2.368,5.053,4.922c1.23,3.243,1.028,6.293-0.582,9.16c-1.612,2.868-5.165,5.361-10.665,7.543
			c-1.448,0.574-2.799,1.061-4.058,1.459c-0.322,0.129-0.877,0.326-1.666,0.589c-0.79,0.265-1.586,0.559-2.388,0.885
			c-2.424,0.984-4.844,1.977-7.263,2.978c-0.383-0.924-0.765-1.848-1.148-2.772c1.205-0.679,2.411-1.357,3.618-2.032
			C521.155,684.643,517.375,675.421,513.595,666.199z M527.66,673.992c0.77-0.308,1.54-0.614,2.311-0.92
			c1.999-0.793,3.26-1.968,3.785-3.535c0.524-1.566,0.371-3.42-0.466-5.563c-0.799-2.049-1.895-3.339-3.288-3.868
			c-1.393-0.528-3.287-0.321-5.676,0.628c-0.631,0.251-1.916,0.834-3.854,1.757c1.653,4.113,3.307,8.227,4.96,12.34
			C525.804,674.718,526.547,674.436,527.66,673.992z M536.436,689.926c2.741-1.089,4.483-2.486,5.229-4.209
			c0.744-1.721,0.663-3.763-0.255-6.126c-0.88-2.268-2.074-3.674-3.584-4.211c-1.509-0.538-3.494-0.326-5.946,0.646
			c-2.746,1.088-4.446,1.81-5.107,2.146c1.747,4.345,3.493,8.691,5.24,13.036C532.866,691.189,534.339,690.759,536.436,689.926z"/>
		<path d="M555.45,682.416c1.223-0.638,2.446-1.273,3.671-1.906c-3.472-9.342-6.944-18.685-10.417-28.027
			c-1.332,0.247-2.665,0.496-3.997,0.747c-0.358-0.952-0.715-1.904-1.073-2.856c2.424-0.911,4.851-1.813,7.28-2.707
			c0.636-0.234,1.335-0.508,2.094-0.821c0.76-0.312,1.335-0.558,1.726-0.736c1.699-0.759,3.119-1.344,4.261-1.754
			c3.459-1.242,6.351-1.893,8.667-1.963c2.316-0.07,4.179,0.414,5.587,1.443c1.408,1.03,2.491,2.65,3.25,4.856
			c0.749,2.175,0.825,4.405,0.24,6.687c-0.585,2.285-1.912,4.175-3.981,5.68c1.509,0.07,3.024,0.635,4.54,1.696
			c1.515,1.061,3.241,2.527,5.173,4.398c1.352,1.262,2.365,2.156,3.039,2.683c0.675,0.527,1.24,0.764,1.698,0.714
			c0.594-0.027,1.187-0.053,1.781-0.078c0.316,0.931,0.632,1.862,0.949,2.793c-2.773,0.942-5.544,1.895-8.312,2.86
			c-0.521,0.182-1.245-0.139-2.173-0.962c-0.929-0.822-2.237-2.173-3.929-4.051c-1.989-2.196-3.639-3.874-4.942-5.04
			c-1.303-1.163-2.464-1.758-3.477-1.784c-1.697,0.608-3.393,1.221-5.088,1.838c1.425,3.916,2.849,7.831,4.274,11.747
			c1.554-0.388,3.108-0.773,4.663-1.154c0.338,0.941,0.676,1.882,1.014,2.824c-5.164,1.854-10.318,3.748-15.462,5.681
			C556.154,684.288,555.802,683.352,555.45,682.416z M569.26,658.107c0.604-1.664,0.455-3.785-0.454-6.363
			c-0.809-2.294-1.933-3.806-3.378-4.534c-1.444-0.725-3.46-0.63-6.038,0.298c-0.938,0.338-1.718,0.666-2.343,0.979
			c-0.624,0.316-1.036,0.509-1.237,0.582c1.709,4.699,3.419,9.397,5.129,14.096c0.419-0.081,1.387-0.398,2.907-0.946
			c0.562-0.203,1.123-0.405,1.685-0.606C567.415,660.938,568.656,659.772,569.26,658.107z"/>
		<path d="M584.949,639.703c-1.415,0.244-2.83,0.491-4.245,0.741c-0.331-0.979-0.662-1.958-0.992-2.938
			c8.992-3.038,18.012-5.961,27.059-8.769c1.051,2.606,2.1,5.212,3.147,7.819c-1.18,0.365-2.359,0.732-3.537,1.102
			c-1.049-1.401-2.1-2.8-3.154-4.198c-3.697,1.007-7.39,2.033-11.081,3.079c1.39,4.263,2.78,8.525,4.169,12.788
			c2.302-0.803,4.606-1.598,6.912-2.386c-0.148-1.387-0.295-2.775-0.441-4.163c1.073-0.341,2.146-0.681,3.22-1.019
			c1.211,3.847,2.422,7.695,3.633,11.542c-1.062,0.334-2.124,0.67-3.185,1.008c-0.7-1.282-1.401-2.563-2.102-3.844
			c-2.329,0.69-4.656,1.389-6.982,2.095c1.457,4.468,2.914,8.937,4.371,13.405c3.91-1.485,7.827-2.948,11.752-4.388
			c0.317-2.335,0.639-4.671,0.967-7.007c1.347-0.052,2.693-0.101,4.038-0.148c0.464,3.048,0.931,6.096,1.402,9.142
			c-9.446,2.911-18.863,5.951-28.248,9.122c-0.32-0.947-0.64-1.895-0.96-2.842c1.24-0.595,2.48-1.187,3.722-1.777
			C591.258,658.612,588.103,649.158,584.949,639.703z"/>
		<path d="M624.927,623.06c2.607-0.762,5.216-1.514,7.828-2.257c7.029,9.731,13.946,19.518,20.75,29.357
			c1.007-0.102,2.013-0.202,3.019-0.301c0.261,0.965,0.521,1.931,0.782,2.896c-4.884,1.318-9.761,2.671-14.631,4.057
			c-0.274-0.962-0.548-1.924-0.821-2.885c1.196-0.514,2.393-1.026,3.591-1.535c-1.232-1.904-2.468-3.807-3.708-5.708
			c-4.316,1.221-8.626,2.469-12.93,3.743c-0.029,2.285-0.053,4.57-0.074,6.854c1.381-0.255,2.761-0.507,4.142-0.756
			c0.282,0.959,0.564,1.919,0.846,2.878c-4.202,1.235-8.398,2.495-12.588,3.781c-0.31-0.951-0.62-1.902-0.93-2.853
			c0.94-0.463,1.88-0.924,2.822-1.384C623.537,646.999,624.172,635.036,624.927,623.06z M630.799,630.153
			c-0.665-1.161-1.331-2.321-1.998-3.481c0.044,1.358,0.088,2.716,0.134,4.074c-0.079,5.351-0.136,10.699-0.172,16.044
			c3.669-1.082,7.341-2.146,11.018-3.189C636.807,639.109,633.814,634.626,630.799,630.153z"/>
		<path d="M682.638,644.258c-1.104-1.051-2.707-2.761-4.819-5.123c-1.817-2.023-3.327-3.638-4.523-4.851
			c-1.198-1.212-2.304-2.188-3.317-2.929c-1.085,2.028-2.162,4.057-3.232,6.088c0.74,2.873,1.479,5.746,2.218,8.62
			c1.477-0.191,2.954-0.379,4.431-0.564c0.241,0.953,0.483,1.907,0.724,2.86c-5.165,1.307-10.323,2.652-15.473,4.035
			c-0.259-0.966-0.519-1.932-0.778-2.897c1.269-0.513,2.538-1.024,3.809-1.533c-2.549-9.635-5.099-19.271-7.648-28.906
			c-1.387,0.143-2.775,0.289-4.163,0.438c-0.268-0.998-0.536-1.996-0.804-2.995c5.152-1.383,10.312-2.73,15.479-4.04
			c0.254,1.002,0.508,2.004,0.762,3.006c-1.265,0.544-2.529,1.09-3.791,1.639c1.354,5.262,2.708,10.524,4.062,15.786
			c3.078-6.403,6.225-12.794,9.443-19.174c-1.457,0.133-2.913,0.269-4.371,0.408c-0.249-1.003-0.498-2.006-0.747-3.009
			c4.639-1.152,9.283-2.275,13.933-3.368c0.236,1.006,0.473,2.012,0.71,3.018c-1.376,0.546-2.75,1.094-4.124,1.645
			c-2.482,4.33-4.93,8.667-7.343,13.011c1.444,0.74,3.06,1.894,4.843,3.466c1.783,1.57,3.986,3.651,6.601,6.244
			c1.915,1.905,3.341,3.287,4.286,4.142c0.946,0.855,1.619,1.321,2.026,1.396c0.827-0.007,1.655-0.013,2.482-0.018
			c0.224,0.958,0.447,1.915,0.671,2.873c-2.983,0.696-5.964,1.405-8.942,2.127C684.542,645.775,683.743,645.309,682.638,644.258z"/>
		<path d="M692.315,609.635c-1.457,0.11-2.915,0.223-4.373,0.339c-0.233-1.007-0.467-2.014-0.7-3.02
			c9.511-2.205,19.043-4.286,28.595-6.244c0.779,2.92,1.556,5.841,2.332,8.761c-1.373,0.281-2.746,0.564-4.119,0.85
			c-1.009-1.663-2.021-3.324-3.035-4.984c-3.761,0.603-7.52,1.225-11.278,1.866c1.016,4.606,2.033,9.212,3.049,13.818
			c2.523-0.608,5.047-1.207,7.573-1.797c0.017-1.503,0.036-3.007,0.056-4.51c1.094-0.232,2.188-0.463,3.283-0.692
			c0.868,4.144,1.735,8.287,2.603,12.431c-1.065,0.223-2.13,0.448-3.195,0.674c-0.65-1.395-1.301-2.79-1.953-4.185
			c-2.542,0.474-5.083,0.957-7.623,1.449c0.937,4.248,1.875,8.496,2.812,12.743c2.599-0.403,5.198-0.796,7.798-1.18
			c0.208,0.978,0.417,1.956,0.626,2.934c-6.303,1.344-12.597,2.744-18.882,4.199c-0.226-0.974-0.451-1.948-0.677-2.923
			c1.25-0.46,2.5-0.919,3.751-1.375C696.743,629.071,694.529,619.353,692.315,609.635z"/>
		<path d="M731.753,597.362c2.653-0.505,5.308-1,7.965-1.485c6.04,10.366,11.964,20.776,17.771,31.227
			c1.007-0.004,2.013-0.006,3.019-0.007c0.167,0.986,0.333,1.972,0.5,2.958c-4.963,0.839-9.921,1.711-14.875,2.618
			c-0.18-0.984-0.36-1.967-0.54-2.951c1.233-0.395,2.466-0.788,3.701-1.179c-1.04-2.015-2.084-4.028-3.132-6.04
			c-4.389,0.796-8.775,1.619-13.157,2.468c-0.245,2.271-0.485,4.542-0.721,6.813c1.391-0.119,2.782-0.236,4.172-0.35
			c0.188,0.982,0.377,1.964,0.565,2.946c-4.277,0.82-8.55,1.666-12.819,2.537c-0.217-0.976-0.434-1.953-0.651-2.929
			c0.974-0.369,1.949-0.736,2.924-1.103C728.112,621.047,729.872,609.205,731.753,597.362z M736.896,604.99
			c-0.549-1.22-1.099-2.439-1.649-3.658c-0.085,1.356-0.17,2.711-0.253,4.067c-0.584,5.317-1.147,10.633-1.688,15.948
			c3.734-0.72,7.472-1.422,11.211-2.103C741.998,614.485,739.458,609.734,736.896,604.99z"/>
		<path d="M770.466,628.599c-1.496-0.064-3.177-0.196-5.043-0.396c-1.234-0.134-2.056-0.183-2.466-0.149
			c-0.356-3.067-0.711-6.133-1.064-9.2c1.377-0.229,2.754-0.456,4.131-0.68c0.719,2.061,1.436,4.123,2.151,6.186
			c0.514,0.391,1.365,0.675,2.555,0.856c1.189,0.182,2.51,0.158,3.962-0.068c2.263-0.352,3.886-1.096,4.874-2.239
			c0.987-1.142,1.352-2.587,1.091-4.335c-0.172-1.153-0.661-2.1-1.469-2.839c-0.809-0.738-1.86-1.354-3.158-1.847
			c-1.298-0.492-3.058-1.023-5.282-1.584c-3.034-0.804-5.627-1.912-7.779-3.332c-2.153-1.42-3.481-3.605-3.974-6.565
			c-0.307-1.842-0.085-3.594,0.674-5.256c0.758-1.662,2.065-3.094,3.925-4.289c1.859-1.194,4.238-2.019,7.132-2.466
			c1.707-0.264,3.233-0.377,4.575-0.344c1.342,0.034,2.809,0.137,4.4,0.308c0.94,0.099,1.64,0.149,2.103,0.149
			c0.313,2.902,0.627,5.803,0.942,8.705c-1.383,0.2-2.765,0.403-4.148,0.609c-0.664-1.974-1.331-3.947-1.999-5.92
			c-0.357-0.25-1.027-0.445-2.007-0.583c-0.981-0.138-2.046-0.119-3.193,0.058c-2.086,0.321-3.588,1.022-4.502,2.096
			c-0.915,1.074-1.249,2.367-1.007,3.881c0.195,1.218,0.752,2.208,1.67,2.974c0.917,0.765,1.974,1.366,3.171,1.803
			c1.197,0.438,3.07,1.031,5.611,1.792c2.059,0.598,3.837,1.229,5.336,1.883c1.498,0.656,2.842,1.598,4.032,2.824
			c1.189,1.227,1.913,2.766,2.176,4.613c0.259,1.816,0.036,3.615-0.659,5.398c-0.696,1.784-2.021,3.372-3.969,4.773
			c-1.951,1.4-4.554,2.347-7.821,2.855C773.618,628.553,771.961,628.664,770.466,628.599z"/>
		<path d="M800.833,589.936c-2.48,0.401-4.959,0.81-7.437,1.227c-0.195,3.692-0.383,7.384-0.564,11.075
			c-1.448,0.197-2.895,0.397-4.342,0.6c-0.376-4.811-0.749-9.623-1.117-14.435c11.254-1.569,22.526-2.97,33.812-4.201
			c0.732,4.766,1.462,9.531,2.189,14.297c-1.365,0.148-2.729,0.299-4.093,0.452c-1.079-3.535-2.165-7.068-3.258-10.6
			c-2.468,0.198-4.935,0.403-7.403,0.617c1.212,10.044,2.425,20.087,3.638,30.131c2.395-0.121,4.79-0.235,7.184-0.34
			c0.113,0.994,0.227,1.987,0.34,2.981c-7.056,0.805-14.106,1.679-21.149,2.621c-0.133-0.991-0.265-1.982-0.398-2.974
			c2.146-0.455,4.293-0.904,6.442-1.346C803.397,610.006,802.115,599.971,800.833,589.936z"/>
		<path d="M841.959,585.893c-1.329-0.096-2.659-0.191-3.99-0.282c-0.097-1.029-0.194-2.058-0.292-3.087
			c2.557-0.242,5.116-0.474,7.674-0.699c1.156-0.101,2.711-0.302,4.664-0.599c0.453-0.071,1.142-0.162,2.069-0.272
			c0.926-0.108,1.758-0.192,2.495-0.251c6.456-0.512,11.406,0.685,14.809,3.53c3.404,2.848,5.262,7.094,5.612,12.716
			c0.245,3.926-0.322,7.467-1.683,10.628c-1.361,3.16-3.409,5.692-6.146,7.606c-2.737,1.914-5.994,3.015-9.792,3.318
			c-0.983,0.078-2.532,0.135-4.645,0.179c-1.979,0.032-3.323,0.083-4.036,0.145c-2.577,0.226-5.153,0.46-7.729,0.704
			c-0.094-0.996-0.188-1.991-0.283-2.987c1.327-0.293,2.654-0.583,3.983-0.872C843.765,605.745,842.862,595.819,841.959,585.893z
			 M856.964,615.223c3.395-0.337,5.963-1.872,7.721-4.624c1.757-2.75,2.464-6.734,2.1-11.955c-0.345-4.953-1.583-8.72-3.732-11.288
			c-2.149-2.568-5.298-3.698-9.427-3.366c-0.874,0.07-1.701,0.188-2.48,0.352c-0.779,0.165-1.323,0.279-1.635,0.337
			c0.856,10.164,1.712,20.328,2.568,30.493C853.261,615.374,854.888,615.389,856.964,615.223z"/>
		<path d="M882.553,582.933c-1.499-0.134-2.999-0.266-4.5-0.394c-0.061-1.032-0.122-2.063-0.182-3.095
			c5.617-0.331,11.236-0.62,16.857-0.868c0.045,1.033,0.091,2.065,0.137,3.098c-1.532,0.284-3.062,0.572-4.592,0.862
			c0.48,9.955,0.959,19.911,1.439,29.866c1.508,0.111,3.016,0.225,4.523,0.342c0.043,0.982,0.087,1.965,0.13,2.947
			c-5.438,0.24-10.874,0.52-16.308,0.84c-0.059-0.998-0.118-1.997-0.177-2.995c1.438-0.252,2.876-0.5,4.315-0.747
			C883.648,602.836,883.101,592.884,882.553,582.933z"/>
		<path d="M903.507,581.974c-1.391-0.166-2.783-0.329-4.176-0.49c-0.042-1.033-0.083-2.065-0.125-3.098
			c3.987-0.16,7.975-0.299,11.964-0.418c5.459,7.341,10.815,14.722,16.069,22.139c0.995,1.885,1.985,3.77,2.97,5.657
			c-0.108-8.149-0.217-16.299-0.325-24.448c-1.509-0.196-3.02-0.39-4.531-0.58c-0.018-1.033-0.036-2.067-0.054-3.1
			c4.359-0.075,8.718-0.126,13.077-0.151c0.006,1.034,0.012,2.067,0.018,3.101c-1.349,0.224-2.697,0.451-4.044,0.68
			c0.104,11.133,0.209,22.266,0.313,33.399c-2.058,0.019-4.115,0.044-6.172,0.075c-5.406-7.803-10.925-15.567-16.556-23.289
			c-1.28-2.163-2.567-4.324-3.861-6.483c0.29,8.912,0.581,17.824,0.871,26.736c1.728,0.111,3.455,0.225,5.181,0.344
			c0.028,1,0.056,1.999,0.084,2.999c-4.505,0.126-9.009,0.279-13.513,0.46c-0.04-0.999-0.08-1.998-0.12-2.998
			c1.34-0.221,2.68-0.439,4.021-0.654C904.234,601.895,903.871,591.934,903.507,581.974z"/>
		<path d="M945.704,581.217c-1.384-0.217-2.769-0.432-4.154-0.644c-0.003-1.034-0.006-2.067-0.009-3.101
			c3.99-0.012,7.98-0.003,11.969,0.026c5.182,7.539,10.261,15.113,15.236,22.72c0.924,1.92,1.844,3.841,2.758,5.764
			c0.194-8.148,0.388-16.296,0.582-24.443c-1.501-0.252-3.003-0.502-4.506-0.748c0.021-1.033,0.041-2.067,0.061-3.1
			c4.358,0.086,8.717,0.198,13.074,0.334c-0.032,1.033-0.065,2.066-0.097,3.099c-1.356,0.174-2.712,0.351-4.067,0.53
			c-0.309,11.129-0.617,22.258-0.926,33.388c-2.057-0.057-4.114-0.108-6.171-0.154c-5.113-7.999-10.34-15.962-15.68-23.887
			c-1.199-2.209-2.405-4.417-3.617-6.622c-0.04,8.917-0.081,17.833-0.121,26.75c1.722,0.174,3.443,0.353,5.164,0.535
			c-0.009,1-0.018,2-0.028,3c-4.506-0.041-9.012-0.055-13.519-0.041c-0.003-1-0.006-2-0.009-3c1.346-0.171,2.694-0.339,4.042-0.505
			C945.692,601.151,945.698,591.184,945.704,581.217z"/>
		<path d="M987.847,582.023c-1.393-0.269-2.786-0.536-4.18-0.799c0.035-1.033,0.07-2.066,0.105-3.099
			c9.364,0.318,18.725,0.751,28.081,1.3c0.064,2.809,0.127,5.617,0.188,8.426c-1.22-0.072-2.44-0.143-3.659-0.211
			c-0.483-1.68-0.968-3.359-1.456-5.038c-3.773-0.356-7.548-0.693-11.325-1.011c-0.199,4.479-0.398,8.958-0.598,13.437
			c2.409,0.057,4.817,0.122,7.225,0.195c0.346-1.351,0.694-2.702,1.042-4.053c1.112,0.057,2.224,0.117,3.335,0.177
			c-0.22,4.028-0.44,8.055-0.66,12.083c-1.1-0.06-2.2-0.119-3.3-0.175c-0.201-1.446-0.403-2.892-0.606-4.338
			c-2.396-0.172-4.792-0.336-7.188-0.492c-0.209,4.695-0.418,9.39-0.627,14.086c4.133-0.016,8.267-0.01,12.402,0.02
			c1.107-2.075,2.22-4.149,3.339-6.22c1.265,0.424,2.529,0.851,3.791,1.279c-0.633,3.017-1.263,6.034-1.889,9.052
			c-9.764-0.592-19.534-1.054-29.308-1.387c0.034-0.999,0.068-1.999,0.102-2.998c1.352-0.121,2.705-0.239,4.058-0.355
			C987.097,601.943,987.472,591.983,987.847,582.023z"/>
		<path d="M1016.137,613.903c1.356-0.08,2.712-0.157,4.068-0.232c0.677-9.944,1.353-19.888,2.03-29.831
			c-1.296-0.322-2.592-0.641-3.89-0.959c0.066-1.015,0.131-2.03,0.197-3.044c2.544,0.164,5.089,0.337,7.632,0.518
			c0.665,0.047,1.404,0.085,2.214,0.11c0.81,0.027,1.425,0.039,1.849,0.037c1.833,0.004,3.348,0.054,4.541,0.148
			c3.612,0.285,6.478,0.878,8.59,1.764c2.112,0.885,3.591,2.091,4.44,3.606c0.847,1.517,1.162,3.438,0.949,5.761
			c-0.211,2.29-1.05,4.355-2.505,6.198c-1.456,1.845-3.418,3.024-5.891,3.548c1.329,0.683,2.462,1.819,3.394,3.407
			c0.932,1.588,1.888,3.633,2.865,6.132c0.704,1.706,1.252,2.936,1.645,3.693c0.392,0.757,0.804,1.205,1.237,1.346
			c0.545,0.219,1.091,0.439,1.635,0.658c-0.094,0.979-0.188,1.958-0.283,2.937c-2.88-0.277-5.762-0.543-8.644-0.798
			c-0.542-0.048-1.063-0.637-1.563-1.768c-0.501-1.13-1.128-2.899-1.886-5.305c-0.896-2.818-1.696-5.026-2.394-6.622
			c-0.698-1.594-1.5-2.613-2.4-3.053c-1.773-0.141-3.546-0.278-5.319-0.411c-0.311,4.155-0.622,8.31-0.933,12.465
			c1.553,0.283,3.106,0.57,4.658,0.86c-0.079,0.997-0.158,1.994-0.237,2.991c-5.394-0.427-10.791-0.814-16.19-1.161
			C1016.008,615.899,1016.073,614.901,1016.137,613.903z M1038.415,597.399c1.219-1.271,1.948-3.265,2.179-5.989
			c0.205-2.424-0.191-4.264-1.194-5.52c-1.003-1.253-2.854-1.993-5.548-2.204c-0.981-0.077-1.814-0.098-2.503-0.068
			c-0.688,0.032-1.139,0.04-1.348,0.024c-0.373,4.986-0.746,9.972-1.12,14.958c0.41,0.098,1.408,0.206,2.996,0.329
			c0.587,0.045,1.173,0.091,1.759,0.138C1035.605,599.223,1037.194,598.669,1038.415,597.399z"/>
		<path d="M1081,585.393c2.675,0.321,5.349,0.651,8.022,0.991c2.613,11.706,5.104,23.419,7.473,35.136
			c0.96,0.301,1.919,0.603,2.877,0.906c-0.139,0.99-0.279,1.98-0.418,2.971c-4.979-0.701-9.962-1.367-14.948-2
			c0.126-0.992,0.252-1.984,0.378-2.976c1.292-0.004,2.585-0.006,3.877-0.005c-0.381-2.235-0.766-4.469-1.154-6.704
			c-4.417-0.568-8.835-1.109-13.257-1.623c-0.918,2.091-1.832,4.183-2.742,6.277c1.358,0.306,2.715,0.616,4.071,0.927
			c-0.118,0.993-0.235,1.986-0.353,2.979c-4.313-0.511-8.629-0.995-12.946-1.455c0.089-0.996,0.178-1.992,0.267-2.989
			c1.036-0.057,2.073-0.113,3.11-0.168C1070.387,606.87,1075.635,596.113,1081,585.393z M1083.585,594.219
			c-0.153-1.328-0.307-2.657-0.463-3.985c-0.491,1.266-0.981,2.533-1.469,3.8c-2.161,4.892-4.302,9.789-6.422,14.692
			c3.767,0.442,7.533,0.903,11.296,1.383C1085.569,604.811,1084.588,599.514,1083.585,594.219z"/>
		<path d="M1109.139,593.114c-1.342-0.414-2.684-0.826-4.028-1.236c0.145-1.023,0.291-2.047,0.436-3.07
			c3.96,0.562,7.917,1.146,11.872,1.75c4.059,8.207,8.012,16.435,11.858,24.681c0.642,2.034,1.279,4.068,1.911,6.102
			c1.363-8.035,2.726-16.071,4.089-24.106c-1.454-0.466-2.91-0.93-4.366-1.39c0.169-1.02,0.337-2.039,0.506-3.059
			c4.314,0.714,8.626,1.453,12.934,2.217c-0.18,1.018-0.361,2.035-0.542,3.053c-1.372-0.023-2.743-0.044-4.114-0.063
			c-1.905,10.969-3.811,21.939-5.716,32.908c-2.034-0.353-4.07-0.701-6.105-1.043c-3.927-8.653-7.971-17.287-12.132-25.9
			c-0.872-2.359-1.752-4.717-2.638-7.074c-1.321,8.818-2.642,17.636-3.963,26.455c1.684,0.421,3.366,0.845,5.047,1.274
			c-0.153,0.988-0.306,1.977-0.458,2.965c-4.466-0.69-8.935-1.353-13.407-1.988c0.141-0.99,0.281-1.98,0.422-2.97
			c1.36,0.025,2.721,0.052,4.082,0.082C1106.263,612.839,1107.701,602.977,1109.139,593.114z"/>
		<path d="M1150.86,599.99c-1.258-0.452-2.517-0.901-3.778-1.348c0.183-1.017,0.367-2.034,0.55-3.051
			c2.535,0.457,5.069,0.923,7.601,1.398c1.144,0.215,2.7,0.44,4.668,0.682c0.456,0.053,1.148,0.153,2.073,0.297
			c0.924,0.146,1.752,0.289,2.48,0.432c6.379,1.25,10.845,3.74,13.37,7.4c2.525,3.663,3.178,8.254,2,13.762
			c-0.823,3.847-2.326,7.104-4.494,9.779c-2.17,2.676-4.834,4.56-7.998,5.663c-3.163,1.104-6.611,1.284-10.364,0.55
			c-0.971-0.191-2.484-0.553-4.538-1.082c-1.919-0.504-3.234-0.817-3.939-0.95c-2.551-0.478-5.103-0.947-7.656-1.407
			c0.177-0.984,0.355-1.968,0.532-2.952c1.36,0.076,2.721,0.154,4.082,0.235C1147.253,619.595,1149.057,609.792,1150.86,599.99z
			 M1157.452,632.284c3.372,0.592,6.27-0.192,8.712-2.367c2.441-2.174,4.198-5.819,5.255-10.945
			c1.003-4.864,0.82-8.824-0.566-11.879c-1.385-3.054-4.127-4.992-8.207-5.788c-0.864-0.168-1.695-0.278-2.492-0.33
			c-0.797-0.051-1.354-0.088-1.671-0.116c-1.913,10.019-3.826,20.038-5.739,30.058
			C1153.833,631.43,1155.401,631.884,1157.452,632.284z"/>
		<path d="M1202.518,610.738c-1.274-0.518-2.548-1.034-3.824-1.548c0.23-1.008,0.461-2.015,0.691-3.023
			c5.517,1.261,11.026,2.564,16.528,3.908c-0.245,1.004-0.491,2.008-0.736,3.012c-1.697-0.192-3.394-0.38-5.091-0.564
			c-2.318,9.676-4.637,19.353-6.955,29.029c3.609,0.71,7.216,1.439,10.821,2.187c1.807-2.761,3.623-5.517,5.447-8.27
			c1.316,0.522,2.632,1.047,3.946,1.575c-1.583,3.998-3.161,7.998-4.733,12c-9.18-2.348-18.382-4.576-27.605-6.683
			c0.223-0.975,0.445-1.95,0.668-2.925c1.358,0.139,2.717,0.281,4.076,0.426C1198.006,630.154,1200.262,620.446,1202.518,610.738z"
			/>
		<path d="M1229.634,648.405c-1.809-3.101-2.037-7.276-0.66-12.533c1.526-5.82,3.052-11.64,4.578-17.461
			c-1.072-0.505-2.146-1.008-3.22-1.51c0.259-1,0.518-2.001,0.777-3.002c5.179,1.341,10.35,2.719,15.514,4.134
			c-0.273,0.997-0.546,1.994-0.819,2.99c-1.511-0.172-3.022-0.341-4.533-0.507c-1.619,6.002-3.238,12.004-4.857,18.006
			c-2.059,7.664-0.286,12.24,5.31,13.794c2.749,0.765,5.063,0.355,6.953-1.239c1.887-1.594,3.347-4.166,4.366-7.723
			c1.73-6.04,3.46-12.081,5.19-18.121c-1.398-0.643-2.798-1.284-4.199-1.922c0.281-0.995,0.561-1.989,0.842-2.984
			c4.268,1.204,8.531,2.433,12.788,3.688c-0.292,0.991-0.584,1.983-0.877,2.974c-1.216-0.133-2.432-0.263-3.647-0.392
			c-1.724,5.921-3.449,11.841-5.173,17.762c-1.455,4.993-3.789,8.321-6.977,10.006c-3.191,1.684-6.885,1.932-11.115,0.758
			C1234.851,653.732,1231.443,651.508,1229.634,648.405z"/>
		<path d="M1273.219,629.585c-1.276-0.611-2.554-1.219-3.834-1.826c0.295-0.991,0.589-1.981,0.884-2.972
			c3.863,1.149,7.722,2.318,11.576,3.509c2.846,8.729,5.585,17.463,8.215,26.201c0.343,2.109,0.681,4.217,1.014,6.325
			c2.534-7.746,5.068-15.492,7.601-23.239c-1.382-0.68-2.766-1.357-4.151-2.031c0.317-0.984,0.635-1.967,0.952-2.951
			c4.198,1.355,8.391,2.734,12.577,4.139c-0.329,0.98-0.658,1.96-0.986,2.94c-1.365-0.23-2.73-0.457-4.095-0.681
			c-3.503,10.568-7.006,21.136-10.51,31.704c-1.978-0.656-3.957-1.306-5.937-1.95c-2.652-9.153-5.422-18.303-8.311-27.448
			c-0.525-2.465-1.056-4.93-1.595-7.395c-2.606,8.527-5.213,17.055-7.819,25.582c1.617,0.669,3.232,1.341,4.845,2.017
			c-0.297,0.955-0.594,1.91-0.89,2.865c-4.351-1.352-8.708-2.677-13.072-3.975c0.285-0.958,0.57-1.917,0.855-2.876
			c1.352,0.228,2.704,0.459,4.056,0.692C1267.468,648.671,1270.344,639.128,1273.219,629.585z"/>
		<path d="M1304.506,669.987c-1.849-4.209-1.857-9.091,0.021-14.65c1.238-3.663,3.108-6.594,5.627-8.782
			c2.519-2.187,5.432-3.543,8.735-4.054c3.304-0.511,6.728-0.137,10.258,1.123c1.478,0.529,2.874,1.128,4.188,1.797
			c1.314,0.671,2.856,1.489,4.629,2.459c1.327,0.735,2.056,1.129,2.19,1.179c-1.374,3.152-2.746,6.306-4.117,9.459
			c-1.525-0.563-3.052-1.122-4.579-1.678c0.3-2.427,0.597-4.854,0.891-7.283c-0.244-0.477-0.777-0.99-1.601-1.536
			c-0.824-0.544-1.941-1.069-3.348-1.572c-2.849-1.016-5.576-0.587-8.161,1.281c-2.588,1.868-4.685,5.155-6.311,9.848
			c-1.573,4.535-2.045,8.516-1.439,11.94c0.605,3.424,2.431,5.673,5.493,6.765c1.466,0.523,2.646,0.797,3.539,0.818
			c0.894,0.021,1.708-0.118,2.443-0.419c1.302-1.354,2.607-2.706,3.916-4.056c1.328,0.627,2.655,1.256,3.981,1.889
			c-1.222,2.302-2.442,4.606-3.659,6.911c-0.704-0.189-1.422-0.319-2.15-0.39c-0.728-0.071-1.179-0.12-1.352-0.149
			c-1.426-0.129-2.732-0.293-3.926-0.494c-1.193-0.2-2.602-0.591-4.225-1.17C1310.028,677.257,1306.357,674.199,1304.506,669.987z"
			/>
		<path d="M1346.886,654.562c-1.156-0.668-2.314-1.334-3.472-1.998c0.362-0.968,0.724-1.936,1.085-2.904
			c5.085,1.9,10.16,3.838,15.224,5.813c-0.375,0.963-0.751,1.926-1.127,2.889c-1.474-0.343-2.949-0.682-4.423-1.018
			c-1.505,3.904-3.01,7.807-4.514,11.711c4.998,1.927,9.985,3.89,14.962,5.891c1.56-3.882,3.121-7.763,4.681-11.645
			c-1.194-0.713-2.389-1.424-3.586-2.134c0.382-0.96,0.764-1.921,1.146-2.881c4.988,1.984,9.965,4.005,14.931,6.062
			c-0.396,0.955-0.791,1.91-1.187,2.865c-1.338-0.32-2.675-0.637-4.012-0.951c-3.781,9.222-7.562,18.443-11.344,27.665
			c1.159,0.655,2.317,1.313,3.474,1.972c-0.383,0.924-0.765,1.848-1.148,2.772c-4.821-1.997-9.652-3.958-14.493-5.883
			c0.37-0.929,0.739-1.858,1.109-2.788c1.32,0.346,2.639,0.694,3.959,1.044c1.685-4.191,3.369-8.381,5.054-12.572
			c-4.96-1.994-9.93-3.951-14.911-5.871c-1.624,4.214-3.249,8.429-4.873,12.643c1.3,0.68,2.598,1.362,3.895,2.047
			c-0.363,0.932-0.727,1.863-1.09,2.795c-4.932-1.924-9.874-3.81-14.825-5.66c0.35-0.937,0.7-1.873,1.05-2.81
			c1.292,0.305,2.583,0.612,3.874,0.921C1339.845,673.211,1343.366,663.886,1346.886,654.562z"/>
	</g>
</g>
</svg>
